<svg width="21" height="20" viewBox="0 0 21 20" fill="none" xmlns="http://www.w3.org/2000/svg">
<path opacity="0.7" d="M13.5228 17.407L14.5278 19.1558C13.563 19.598 12.5077 19.8894 11.4123 20V17.9698C12.156 17.8794 12.8595 17.6884 13.5228 17.407ZM2.43738 11.005H0.407227C0.517779 12.1106 0.809237 13.1558 1.25145 14.1206L3.00019 13.1156C2.71878 12.4523 2.52783 11.7487 2.43738 11.005ZM13.5228 2.59296L14.5278 0.844221C13.563 0.40201 12.5178 0.110553 11.4123 0V2.03015C12.156 2.1206 12.8595 2.31156 13.5228 2.59296ZM18.3771 8.99497H20.4072C20.2967 7.88945 20.0052 6.84422 19.563 5.8794L17.8143 6.88442C18.0957 7.54774 18.2866 8.25126 18.3771 8.99497ZM7.29165 17.407L6.28662 19.1558C7.25145 19.598 8.30672 19.8894 9.4022 20V17.9698C8.65848 17.8794 7.95496 17.6884 7.29165 17.407ZM9.4022 2.03015V0C8.29667 0.110553 7.25145 0.40201 6.28662 0.844221L7.29165 2.59296C7.95496 2.31156 8.65848 2.1206 9.4022 2.03015ZM16.7992 5.14573L18.5479 4.13065C17.9148 3.25628 17.1409 2.48241 16.2665 1.84925L15.2514 3.59799C15.8444 4.05025 16.357 4.56281 16.7992 5.14573ZM3.00019 6.88442L1.25145 5.8794C0.809237 6.84422 0.517779 7.88945 0.407227 8.99497H2.43738C2.52783 8.25126 2.71878 7.54774 3.00019 6.88442ZM18.3771 11.005C18.2866 11.7487 18.0957 12.4523 17.8143 13.1156L19.563 14.1206C20.0052 13.1558 20.2967 12.1005 20.4072 11.005H18.3771ZM15.2615 16.392L16.2766 18.1407C17.1509 17.5075 17.9248 16.7337 18.558 15.8593L16.8092 14.8442C16.357 15.4372 15.8444 15.9497 15.2615 16.392ZM5.55295 3.60804L4.54793 1.84925C3.66351 2.49246 2.89969 3.25628 2.26652 4.1407L4.01527 5.15578C4.45748 4.56281 4.97004 4.05025 5.55295 3.60804ZM4.01527 14.8543L2.26652 15.8593C2.89969 16.7337 3.67356 17.5075 4.54793 18.1407L5.563 16.392C4.97004 15.9497 4.45748 15.4372 4.01527 14.8543ZM11.4123 4.97487H9.4022V10.4121L13.7138 14.7236L15.1308 13.3065L11.4123 9.58794V4.97487Z" fill="#808080"/>
</svg>
