<svg width="108" height="96" viewBox="0 0 108 96" fill="none" xmlns="http://www.w3.org/2000/svg">
<path d="M108 32.2884C108 32.1525 107.984 32.0199 107.961 31.889V18.9407C107.961 11.8706 100.678 6.11873 91.7256 6.11873H87.5265V2.89174C87.5265 1.29473 85.8871 0 83.8649 0C81.8428 0 80.2034 1.29473 80.2034 2.89174V6.11873H57.6616V2.89174C57.6616 1.29473 56.0222 0 54 0C51.9778 0 50.3384 1.29473 50.3384 2.89174V6.11873H27.7966V2.89174C27.7966 1.29473 26.1572 0 24.1351 0C22.1129 0 20.4735 1.29473 20.4735 2.89174V6.11873H16.2354C7.28334 6.11873 0 11.8706 0 18.9407V83.178C0 90.2481 7.28309 96 16.2354 96H91.7256C100.678 96 107.961 90.2481 107.961 83.178V32.6879C107.984 32.557 108 32.4243 108 32.2884ZM16.2354 11.9022H20.4735V15.129C20.4735 16.726 22.1129 18.0208 24.1351 18.0208C26.1572 18.0208 27.7966 16.726 27.7966 15.129V11.9022H50.3384V15.129C50.3384 16.726 51.9778 18.0208 54 18.0208C56.0222 18.0208 57.6616 16.726 57.6616 15.129V11.9022H80.2034V15.129C80.2034 16.726 81.8428 18.0208 83.8649 18.0208C85.8871 18.0208 87.5265 16.726 87.5265 15.129V11.9022H91.7256C96.6399 11.9022 100.638 15.0596 100.638 18.9407V29.3967H7.32312V18.9407C7.32312 15.0598 11.3211 11.9022 16.2354 11.9022ZM91.7256 90.2165H16.2354C11.3213 90.2165 7.32312 87.0591 7.32312 83.178V35.1801H100.638V83.178C100.638 87.0589 96.6399 90.2165 91.7256 90.2165ZM32.5432 62.6405C32.5432 58.3993 33.6332 55.0389 35.814 52.558C37.9943 50.0776 41.4772 48.8373 46.2616 48.8373C51.0134 48.8373 54.488 50.0776 56.6849 52.558C58.8818 55.0389 59.9803 58.3993 59.9803 62.6405C59.9803 66.9075 58.8818 70.288 56.6849 72.7809C54.488 75.2745 51.0134 76.5209 46.2616 76.5209C41.4772 76.5209 37.9943 75.2743 35.814 72.7809C33.6332 70.2878 32.5432 66.9075 32.5432 62.6405ZM51.681 62.6405C51.681 60.1987 51.3148 58.3287 50.5825 57.0305C49.8502 55.7329 48.4103 55.0834 46.2619 55.0834C44.0811 55.0834 42.6164 55.7389 41.868 57.0498C41.1191 58.3607 40.7451 60.2247 40.7451 62.6405C40.7451 65.0829 41.1189 66.9654 41.868 68.289C42.6164 69.6133 44.0811 70.2747 46.2619 70.2747C48.4103 70.2747 49.8502 69.6133 50.5825 68.289C51.3148 66.9654 51.681 65.0827 51.681 62.6405ZM61.494 55.469V49.2999H75.4568V76.5594H66.669V55.469H61.494Z" fill="url(#paint0_linear_177_791)"/>
<defs>
<linearGradient id="paint0_linear_177_791" x1="3.29858" y1="91.0856" x2="81.172" y2="-7.51857" gradientUnits="userSpaceOnUse">
<stop stop-color="#6BCBD8"/>
<stop offset="1" stop-color="#AE6CAC"/>
</linearGradient>
</defs>
</svg>
