<svg width="23" height="19" viewBox="0 0 23 19" fill="none" xmlns="http://www.w3.org/2000/svg">
<path d="M16.9511 0.0611572C15.7385 0.0611572 14.6267 0.429153 13.6468 1.15495C12.7074 1.85077 12.0819 2.73703 11.7137 3.38148C11.3454 2.73698 10.72 1.85077 9.78049 1.15495C8.80057 0.429153 7.68885 0.0611572 6.47625 0.0611572C3.09237 0.0611572 0.540527 2.71191 0.540527 6.22705C0.540527 10.0246 3.72413 12.6229 8.54368 16.5563C9.36211 17.2242 10.2898 17.9814 11.254 18.7889C11.3811 18.8955 11.5443 18.9542 11.7137 18.9542C11.883 18.9542 12.0462 18.8955 12.1733 18.7889C13.1376 17.9813 14.0653 17.2242 14.8842 16.5558C19.7032 12.6229 22.8868 10.0246 22.8868 6.22705C22.8868 2.71191 20.335 0.0611572 16.9511 0.0611572Z" fill="#FF0000" fill-opacity="0.8"/>
</svg>
