<svg width="28" height="29" viewBox="0 0 28 29" fill="none" xmlns="http://www.w3.org/2000/svg">
<path d="M12.2489 25.9725L12.6203 26.975C12.8975 27.7416 13.7467 28.1308 14.5133 27.8477C15.2681 27.5647 15.6573 26.7273 15.386 25.9725L12.2489 25.9725ZM11.0104 22.6349H14.1535L13.5225 20.9189L15.787 18.3655C16.1055 18.3301 16.4298 18.2475 16.7423 18.1178C17.1492 17.9468 17.5148 17.7109 17.8155 17.422H11.6946L10.6036 19.8103L10.4975 20.052C10.3441 20.3763 10.3205 20.7656 10.4561 21.1311L11.0104 22.6349ZM4.176 14.1551C4.51928 14.0494 4.76339 14.0843 6.06298 14.0843L10.3559 12.1973C10.3795 12.2681 10.4031 12.3329 10.4325 12.4037L11.1402 14.0843H18.8888C18.8 13.5772 18.7197 13.4917 17.0902 9.60859C16.1664 7.39995 13.6245 7.07347 12.5082 7.60367C12.1971 7.75924 12.0188 7.84543 12.0188 7.84543L4.34697 11.6136C3.64518 11.9615 3.33264 12.8047 3.65112 13.53C3.76911 13.7954 3.95184 14.0077 4.176 14.1551Z" fill="#5C6898"/>
<path d="M12.0343 6.9568C13.6627 6.9568 14.9827 5.63675 14.9827 4.0084C14.9827 2.38004 13.6627 1.06 12.0343 1.06C10.406 1.06 9.08594 2.38004 9.08594 4.0084C9.08594 5.63675 10.406 6.9568 12.0343 6.9568Z" fill="#5C6898"/>
<path d="M25.5973 23.2225H21.2053V16.8342H23.3367C23.9339 16.8342 24.4179 16.3502 24.4179 15.7531C24.4179 15.1561 23.9339 14.672 23.3367 14.672H22.5014V7.54662C22.5014 6.84102 21.9293 6.26892 21.2237 6.26892C20.5181 6.26892 19.946 6.84096 19.946 7.54662V14.672H4.66335C3.23541 14.672 3.23334 16.8342 4.66335 16.8342H6.79477V23.2225H2.4028C1.80579 23.2225 1.32178 23.7066 1.32178 24.3037C1.32178 24.9007 1.80579 25.3847 2.4028 25.3847H2.88871C2.85371 25.5261 2.82986 25.6717 2.82986 25.824C2.82986 26.8366 3.65076 27.6575 4.66341 27.6575C5.676 27.6575 6.49696 26.8365 6.49696 25.824C6.49696 25.6717 6.47299 25.5261 6.43811 25.3847H21.5621C21.5272 25.5261 21.5033 25.6717 21.5033 25.824C21.5033 26.8366 22.3242 27.6575 23.3368 27.6575C24.3495 27.6575 25.1704 26.8365 25.1704 25.824C25.1704 25.6717 25.1465 25.5261 25.1115 25.3847H25.5974C26.1945 25.3847 26.6785 24.9007 26.6785 24.3037C26.6785 23.7066 26.1944 23.2225 25.5973 23.2225ZM19.8786 23.2225H8.12158V16.8342H19.8785L19.8786 23.2225Z" fill="#5C6898"/>
</svg>
