<svg width="216" height="223" viewBox="0 0 216 223" fill="none" xmlns="http://www.w3.org/2000/svg">
<g clip-path="url(#clip0_20_75)" filter="url(#filter0_d_20_75)">
<path d="M73.5328 215C70.7781 215 68.2586 213.387 67.1164 210.868C53.3766 179.693 51.5289 153.288 61.5062 130.109C61.7414 129.571 61.9766 129.034 62.1781 128.496C62.2117 128.429 62.2117 128.395 62.2453 128.328C62.5141 127.656 62.7828 126.951 63.018 126.245C70.1062 105.148 69.3 88.9227 60.6328 78.0383C57.5422 74.1414 55.157 70.1102 53.6117 66.0789C47.9344 51.4656 50.118 39.8758 52.9398 32.7539C55.7953 25.5648 61.4055 19.182 68.7625 14.8148C87.9109 3.46015 109.377 3.82968 132.557 15.8898C136.857 18.107 138.839 23.2805 137.092 27.6141C133.128 37.4906 124.159 42.0258 110.52 41.1523C109.78 48.7445 105.514 56.3367 96.9477 65.5078C96.3094 66.1797 95.3016 66.2133 94.6297 65.575C91.7742 62.9211 88.5156 61.8461 85.6266 62.5851C83.1406 63.2234 81.1922 65.2055 80.2852 67.9937C79.3445 70.8828 80.4867 75.8211 82.7039 78.5758C85.593 82.1703 89.6914 83.9508 95.2008 83.9508C96.1078 83.9508 96.8469 84.6898 96.8469 85.5969C96.8469 86.5039 96.1078 87.243 95.2008 87.243C88.7172 87.2094 83.6445 84.9922 80.1508 80.625C77.5641 77.4 75.75 71.4203 77.1609 66.9523C78.4039 63.0555 81.1922 60.3008 84.7867 59.3601C88.3141 58.4195 92.2109 59.3937 95.6039 62.0476C103.498 53.3469 107.127 46.2586 107.328 39.2711C107.328 38.8008 107.53 38.3976 107.899 38.0953C108.235 37.793 108.705 37.6586 109.142 37.6922C122.345 38.9687 130.474 35.2398 134.035 26.3375C135.144 23.5492 133.834 20.257 131.045 18.7789C108.941 7.28984 88.5492 6.88671 70.4422 17.6031C63.7234 21.6008 58.5836 27.3789 55.9969 33.8961C52.2008 43.4703 52.4359 53.8844 56.6687 64.8023C58.1133 68.5312 60.3305 72.2602 63.2195 75.8883C72.5922 87.6461 73.6 104.779 66.2766 126.816C111.863 119.224 121.605 146.334 133.834 180.533C136.958 189.234 140.183 198.203 144.214 207.475C144.416 207.979 144.382 208.516 144.113 208.987C143.845 209.457 143.341 209.726 142.803 209.793L74.0031 214.899C73.8687 215 73.7008 215 73.5328 215ZM64.9328 130.478C64.7984 130.78 64.6641 131.083 64.5633 131.385C54.9891 153.658 56.8031 179.223 70.1734 209.491C70.8117 210.902 72.2898 211.809 73.8352 211.641L140.317 206.702C136.655 198.102 133.666 189.771 130.777 181.675C118.38 147.241 109.445 122.281 64.9328 130.478Z" fill="#FDB3CA"/>
<path d="M67.8219 89.9641C67.1836 89.9641 66.5789 89.5946 66.3102 88.9899C65.9406 88.15 66.3102 87.1758 67.1164 86.8063C68.9641 85.9664 70.7781 84.9922 72.4914 83.9172L80.9906 78.6766C81.7633 78.2063 82.8047 78.4414 83.275 79.2141C83.7453 79.9867 83.5102 80.9946 82.7375 81.4985L74.2719 86.7391C72.4578 87.8813 70.543 88.9227 68.5273 89.8297C68.2586 89.9305 68.0234 89.9641 67.8219 89.9641ZM125.368 120.064C124.024 120.064 122.647 119.863 121.303 119.426L98.7281 112.237C97.8547 111.968 97.3844 111.027 97.6531 110.154C97.9219 109.28 98.8625 108.81 99.7359 109.079L122.311 116.268C125.737 117.343 129.399 116.537 131.885 114.152C137.126 109.079 140.149 100.848 141.157 88.9227C141.325 87.0414 142.904 85.5633 144.785 85.5633C148.48 85.5297 150.698 83.9508 151.806 80.625C152.041 79.9196 151.84 79.0797 151.336 78.475L145.255 71.3196C142.03 68.1617 141.191 63.7274 142.971 58.9906C143.945 56.4039 144.55 53.7164 144.718 50.9953C145.692 35.9453 141.258 25.4305 131.113 18.8125C130.34 18.3086 130.138 17.3008 130.642 16.5282C131.146 15.7555 132.154 15.5539 132.927 16.0578C143.979 23.2805 149.052 35.1055 148.01 51.2305C147.809 54.2875 147.137 57.2774 146.062 60.1664C145.121 62.6188 144.651 66.1125 147.674 69.0688L153.855 76.325C155.132 77.8031 155.535 79.8524 154.964 81.6664C153.452 86.336 149.925 88.8555 144.819 88.8891C144.651 88.8891 144.483 89.0571 144.483 89.225C143.441 101.991 140.082 110.927 134.203 116.57C131.818 118.855 128.66 120.064 125.368 120.064Z" fill="#FDB3CA"/>
<path d="M145.591 57.7476C145.289 57.7476 144.987 57.6805 144.718 57.5125C144.617 57.4453 135.177 51.7344 125.267 54.489C124.394 54.7578 123.487 54.2203 123.218 53.3469C122.983 52.4734 123.487 51.5664 124.36 51.2976C135.715 48.1398 145.995 54.4219 146.431 54.6906C147.204 55.1609 147.439 56.2023 146.969 56.975C146.666 57.4789 146.129 57.7476 145.591 57.7476ZM107.16 136.995C106.253 136.995 105.514 136.256 105.514 135.349V113.211C105.514 112.304 106.253 111.565 107.16 111.565C108.067 111.565 108.806 112.304 108.806 113.211V135.349C108.806 136.256 108.067 136.995 107.16 136.995ZM170.35 143.009C169.645 143.009 168.973 142.538 168.771 141.833C164.941 129.202 158.995 121.139 151.134 117.813C141.258 113.648 131.684 118.485 131.583 118.519C130.777 118.955 129.769 118.62 129.366 117.813C128.963 117.007 129.265 115.999 130.071 115.596C130.508 115.361 141.157 110.02 152.445 114.79C161.28 118.519 167.83 127.32 171.963 140.926C172.231 141.799 171.727 142.74 170.854 142.975C170.652 142.975 170.484 143.009 170.35 143.009ZM115.525 145.83C114.853 145.83 114.215 145.394 113.98 144.722C110.083 133.77 113.946 124.431 125.502 116.973C126.275 116.47 127.283 116.705 127.787 117.477C128.291 118.25 128.055 119.258 127.283 119.762C117.07 126.38 113.711 134.207 117.07 143.613C117.373 144.487 116.936 145.427 116.063 145.73C115.895 145.797 115.727 145.83 115.525 145.83Z" fill="#FDB3CA"/>
<path d="M186.307 183.187H162.59C155.031 183.187 148.917 177.039 148.917 169.514C148.917 164.744 151.336 160.377 155.401 157.891L168.57 149.727C170.753 146.771 170.115 143.143 168.2 141.295C166.285 139.448 163.665 139.683 160.977 141.934C160.272 142.505 159.23 142.438 158.659 141.732C158.088 141.027 158.155 139.985 158.861 139.414C163.665 135.349 168.133 136.626 170.518 138.91C173.541 141.833 174.549 147.544 171.022 151.978C170.887 152.146 170.753 152.247 170.585 152.348L157.148 160.645C154.057 162.56 152.243 165.852 152.243 169.48C152.243 175.191 156.912 179.861 162.623 179.861H186.341C187.248 179.861 187.987 180.6 187.987 181.507C187.987 182.448 187.248 183.187 186.307 183.187Z" fill="#FDB3CA"/>
<path d="M140.082 175.897C135.513 175.897 131.247 174.452 127.35 171.53C126.611 170.992 126.477 169.951 127.014 169.212C127.552 168.473 128.593 168.338 129.332 168.876C135.412 173.377 142.198 173.78 150.093 170.152C150.933 169.783 151.907 170.119 152.277 170.959C152.646 171.798 152.31 172.773 151.47 173.142C147.473 174.99 143.677 175.897 140.082 175.897ZM142.702 209.86C141.795 209.86 141.056 209.121 141.056 208.214C141.056 207.307 141.762 206.534 142.702 206.534L180.529 205.997C182.444 205.963 184.023 204.452 184.157 202.537C185.299 185.337 185.669 164.509 178.144 156.312C175.927 153.893 173.172 152.684 169.678 152.616C168.771 152.583 168.032 151.844 168.066 150.937C168.099 150.03 168.838 149.291 169.745 149.324C174.113 149.425 177.774 151.037 180.562 154.095C187.18 161.317 189.23 175.897 187.449 202.772C187.214 206.4 184.191 209.289 180.562 209.323L142.702 209.86ZM102.927 212.816C102.289 212.816 101.684 212.447 101.416 211.842L85.7609 176.804C85.3914 175.964 85.7609 174.99 86.6008 174.62C87.4406 174.251 88.4149 174.62 88.7844 175.46L104.439 210.498C104.809 211.338 104.439 212.312 103.599 212.682C103.364 212.783 103.129 212.816 102.927 212.816ZM134.808 165.046C134.539 165.046 134.237 165.046 133.968 165.046C133.061 165.012 132.355 164.24 132.389 163.333C132.423 162.426 133.128 161.72 134.102 161.754C137.898 161.888 140.216 160.981 141.258 158.966C141.661 158.159 142.669 157.823 143.475 158.227C144.281 158.63 144.617 159.637 144.18 160.444C142.635 163.467 139.477 165.046 134.808 165.046ZM142.198 149.526C140.821 149.526 139.309 149.19 137.73 148.518C136.891 148.182 136.488 147.208 136.823 146.368C137.159 145.528 138.134 145.125 138.973 145.461C140.922 146.267 142.534 146.435 143.777 145.898C145.02 145.394 146.028 144.151 146.834 142.236C147.17 141.396 148.145 140.993 148.984 141.329C149.824 141.665 150.227 142.639 149.891 143.479C148.749 146.234 147.103 148.081 145.054 148.955C144.18 149.324 143.24 149.526 142.198 149.526ZM122.58 157.857C122.546 157.857 122.513 157.857 122.445 157.857C121.538 157.857 120.799 157.084 120.799 156.177C120.799 155.27 121.538 154.531 122.445 154.531C122.479 154.531 122.513 154.531 122.546 154.531C126.04 154.531 126.611 150.87 126.645 150.702C126.779 149.795 127.619 149.156 128.526 149.324C129.433 149.459 130.038 150.298 129.903 151.205C129.601 153.523 127.619 157.857 122.58 157.857ZM139.612 98.3961C132.188 98.3961 127.72 93.2226 126.309 90.2328C125.939 89.3929 126.275 88.4187 127.115 88.0492C127.955 87.6461 128.929 88.0156 129.298 88.8554C129.433 89.1578 132.927 96.2461 141.594 94.9695C142.501 94.8687 143.341 95.4734 143.475 96.3804C143.609 97.2875 142.971 98.1273 142.064 98.2617C141.224 98.3625 140.418 98.3961 139.612 98.3961Z" fill="#FDB3CA"/>
<path d="M91.1023 78.1727C89.7586 78.1727 88.3141 77.8032 86.9367 76.9969C85.425 76.1235 84.2492 74.8805 83.5773 73.4696C82.8383 71.8907 82.8383 70.2446 83.6109 68.9008C85.1227 66.3141 88.9187 65.8102 92.2781 67.725C95.6375 69.6735 97.082 73.2008 95.6039 75.8211C94.7305 77.3664 93.0508 78.1727 91.1023 78.1727ZM88.1461 69.875C87.3734 69.875 86.7352 70.1102 86.5 70.5469C86.1977 71.0508 86.4328 71.6891 86.6008 72.0586C86.9703 72.8313 87.7094 73.6039 88.6164 74.1078C90.3969 75.1492 92.2781 74.9813 92.7484 74.1414C93.2187 73.3016 92.4125 71.6219 90.632 70.5805C89.7922 70.1102 88.8852 69.875 88.1461 69.875Z" fill="#FDB3CA"/>
<path d="M51.7641 47.4008H51.6969C38.5953 47.4008 27.9461 36.7516 27.9461 23.6836C27.9461 10.6156 38.5953 0 51.6969 0C61.1367 0 69.7031 5.61016 73.432 14.2773C73.8016 15.1172 73.3984 16.0914 72.5586 16.4609C71.7188 16.8305 70.7445 16.4273 70.375 15.5875C67.15 8.12969 59.793 3.29219 51.6633 3.29219C40.4094 3.29219 31.2383 12.4297 31.2383 23.6836C31.2383 34.9375 40.4094 44.075 51.6633 44.075C52.5703 44.075 53.343 44.8141 53.343 45.7211C53.3766 46.6617 52.6711 47.4008 51.7641 47.4008Z" fill="#FDB3CA"/>
<path d="M130.172 131.688C129.634 131.688 129.13 131.419 128.795 130.948C128.291 130.209 128.459 129.168 129.231 128.664C132.02 126.749 129.198 120.534 127.988 118.485C127.518 117.713 127.787 116.671 128.559 116.234C129.332 115.764 130.373 116.033 130.81 116.805C133.128 120.702 135.816 128.16 131.079 131.419C130.81 131.62 130.474 131.688 130.172 131.688Z" fill="#FDB3CA"/>
<path d="M137.798 129.302C137.26 129.302 136.756 129.034 136.42 128.563C135.916 127.824 136.084 126.783 136.857 126.279C139.679 124.364 136.823 117.948 135.58 115.831C135.11 115.025 135.379 114.017 136.185 113.58C136.991 113.11 137.999 113.379 138.436 114.185C138.705 114.622 144.617 125.002 138.705 129.034C138.436 129.202 138.1 129.302 137.798 129.302Z" fill="#FDB3CA"/>
<path d="M88.2469 157.286C83.3758 157.286 79.6469 156.211 76.9594 154.061C74.7086 152.079 73.9023 149.089 74.9437 146.57C75.918 144.218 78.2023 142.773 81.1586 142.639C82.4687 139.952 84.5852 138.44 87.2055 138.44C89.9266 138.473 92.3789 140.355 93.2859 143.143C93.2859 143.177 93.2859 143.177 93.3195 143.21C94.3273 146.905 93.6555 151.172 91.2031 156.278C90.9344 156.816 90.3969 157.185 89.7922 157.219C89.2547 157.286 88.7508 157.286 88.2469 157.286ZM81.6289 145.931C79.7812 145.931 78.4711 146.603 77.9672 147.812C77.4633 149.022 77.9 150.5 79.0422 151.508C81.1586 153.187 84.2828 154.027 88.6164 153.96C90.3297 150.097 90.8336 146.805 90.1281 144.151C89.6578 142.74 88.482 141.766 87.1719 141.766H87.1383C85.7273 141.766 84.518 142.874 83.8125 144.856C83.5773 145.562 82.9055 146.032 82.1328 145.965C81.9648 145.965 81.7969 145.931 81.6289 145.931Z" fill="#FDB3CA"/>
<path d="M105.514 178.685C100.643 178.685 96.9141 177.61 94.2266 175.46C91.9758 173.478 91.1695 170.488 92.2109 167.969C93.1852 165.617 95.4695 164.173 98.4258 164.038C99.7023 161.384 101.886 159.839 104.405 159.839C104.439 159.839 104.439 159.839 104.473 159.839C107.194 159.873 109.646 161.754 110.553 164.542C110.553 164.576 110.553 164.576 110.587 164.609C111.595 168.305 110.923 172.571 108.47 177.677C108.202 178.215 107.664 178.584 107.059 178.618C106.522 178.685 106.018 178.685 105.514 178.685ZM98.9297 167.33C97.082 167.33 95.7719 168.002 95.268 169.212C94.7641 170.421 95.2008 171.899 96.343 172.907C98.4594 174.587 101.651 175.46 105.917 175.359C107.63 171.496 108.134 168.204 107.429 165.55C106.959 164.139 105.749 163.165 104.473 163.165C103.095 163.266 101.819 164.273 101.113 166.255C100.878 166.961 100.206 167.431 99.4336 167.364C99.2656 167.364 99.0641 167.33 98.9297 167.33Z" fill="#FDB3CA"/>
<path d="M159.533 204.384C159.264 204.384 158.995 204.317 158.727 204.183C154.023 201.563 151.101 198.606 149.858 195.18C148.984 192.425 149.858 189.57 151.974 188.024C153.956 186.58 156.543 186.546 159.029 187.923C161.414 186.412 164.001 186.277 166.05 187.588C168.267 188.998 169.309 191.787 168.67 194.508C168.67 194.541 168.67 194.575 168.637 194.575C167.629 198.102 164.941 201.227 160.406 204.149C160.137 204.284 159.835 204.384 159.533 204.384ZM155.434 190.208C154.863 190.208 154.359 190.376 153.923 190.678C152.948 191.384 152.579 192.761 152.982 194.105C153.855 196.49 155.972 198.707 159.432 200.79C162.724 198.505 164.706 196.154 165.445 193.668C165.748 192.324 165.277 190.98 164.27 190.342C163.127 189.637 161.616 189.939 160.104 191.182C159.533 191.652 158.727 191.686 158.122 191.249C157.181 190.544 156.241 190.208 155.434 190.208Z" fill="#FDB3CA"/>
</g>
<defs>
<filter id="filter0_d_20_75" x="-3.5" y="0" width="223" height="223" filterUnits="userSpaceOnUse" color-interpolation-filters="sRGB">
<feFlood flood-opacity="0" result="BackgroundImageFix"/>
<feColorMatrix in="SourceAlpha" type="matrix" values="0 0 0 0 0 0 0 0 0 0 0 0 0 0 0 0 0 0 127 0" result="hardAlpha"/>
<feOffset dy="4"/>
<feGaussianBlur stdDeviation="2"/>
<feComposite in2="hardAlpha" operator="out"/>
<feColorMatrix type="matrix" values="0 0 0 0 0 0 0 0 0 0 0 0 0 0 0 0 0 0 0.25 0"/>
<feBlend mode="normal" in2="BackgroundImageFix" result="effect1_dropShadow_20_75"/>
<feBlend mode="normal" in="SourceGraphic" in2="effect1_dropShadow_20_75" result="shape"/>
</filter>
<clipPath id="clip0_20_75">
<rect width="215" height="215" fill="white" transform="translate(0.5)"/>
</clipPath>
</defs>
</svg>
