<svg width="30" height="30" viewBox="0 0 30 30" fill="none" xmlns="http://www.w3.org/2000/svg">
<path d="M15 30C16.655 30 18.009 28.6154 18.009 26.9231H11.991C11.991 28.6154 13.345 30 15 30ZM24.0271 20.7692V13.0769C24.0271 8.35385 21.5747 4.4 17.2568 3.35385V2.30769C17.2568 1.03077 16.2487 0 15 0C13.7513 0 12.7432 1.03077 12.7432 2.30769V3.35385C8.44032 4.4 5.97292 8.33846 5.97292 13.0769V20.7692L2.96389 23.8462V25.3846H27.0361V23.8462L24.0271 20.7692ZM21.0181 22.3077H8.98195V13.0769C8.98195 9.26154 11.2538 6.15385 15 6.15385C18.7462 6.15385 21.0181 9.26154 21.0181 13.0769V22.3077ZM8.35005 2.43077L6.1986 0.230769C2.58776 3.04615 0.210632 7.38462 0 12.3077H3.00903C3.2347 8.23077 5.28084 4.66154 8.35005 2.43077ZM26.991 12.3077H30C29.7743 7.38462 27.3972 3.04615 23.8014 0.230769L21.665 2.43077C24.7041 4.66154 26.7653 8.23077 26.991 12.3077Z" fill="#5C6898"/>
</svg>
