<svg width="21" height="21" viewBox="0 0 21 21" fill="none" xmlns="http://www.w3.org/2000/svg">
<path d="M8.40723 15L14.4072 10.5L8.40723 6V15ZM10.4072 0.5C4.88723 0.5 0.407227 4.98 0.407227 10.5C0.407227 16.02 4.88723 20.5 10.4072 20.5C15.9272 20.5 20.4072 16.02 20.4072 10.5C20.4072 4.98 15.9272 0.5 10.4072 0.5ZM10.4072 18.5C5.99723 18.5 2.40723 14.91 2.40723 10.5C2.40723 6.09 5.99723 2.5 10.4072 2.5C14.8172 2.5 18.4072 6.09 18.4072 10.5C18.4072 14.91 14.8172 18.5 10.4072 18.5Z" fill="#FDB3CA"/>
</svg>
