<svg width="25" height="30" viewBox="0 0 25 30" fill="none" xmlns="http://www.w3.org/2000/svg">
<path d="M22.2222 0H2.77778C1.25 0 0.0138889 1.22727 0.0138889 2.72727L0 20.3591C0 21.3 0.486111 22.1318 1.22222 22.6227L12.5 30L23.7639 22.6227C24.5 22.1318 24.9861 21.3 24.9861 20.3591L25 2.72727C25 1.22727 23.75 0 22.2222 0ZM12.5 26.7273L2.77778 20.3727V2.72727H22.2222V20.3591L12.5 26.7273ZM9.70833 16.6091L6.125 13.0773L4.16667 15L9.72222 20.4545L20.8333 9.54545L18.8611 7.60909L9.70833 16.6091Z" fill="#5C6898"/>
</svg>
