<svg width="66" height="36" viewBox="0 0 66 36" fill="none" xmlns="http://www.w3.org/2000/svg">
<path d="M33.3999 14.675C37.0243 14.675 39.9624 11.7369 39.9624 8.1125C39.9624 4.48813 37.0243 1.55 33.3999 1.55C29.7755 1.55 26.8374 4.48813 26.8374 8.1125C26.8374 11.7369 29.7755 14.675 33.3999 14.675Z" fill="#5C6898"/>
<path d="M49.6532 29.8563C48.9725 26.7569 47.4115 23.9199 45.1579 21.6859C44.6109 21.137 44.0181 20.6357 43.386 20.1875C40.5073 18.0282 36.9985 16.8752 33.4001 16.9063C29.0001 16.8837 24.7696 18.6019 21.6313 21.6859C19.3776 23.9199 17.8167 26.7569 17.136 29.8563C17.0177 30.4043 17.0241 30.9719 17.1547 31.5172C17.2853 32.0624 17.5369 32.5713 17.8907 33.0063C18.2571 33.4505 18.7186 33.8069 19.241 34.0492C19.7634 34.2915 20.3336 34.4135 20.9094 34.4063H45.8907C46.4682 34.4066 47.0384 34.277 47.5591 34.0271C48.0798 33.7772 48.5375 33.4133 48.8985 32.9625C49.246 32.5327 49.4939 32.0312 49.6244 31.4941C49.7549 30.957 49.7647 30.3976 49.6532 29.8563Z" fill="#5C6898"/>
</svg>
