<svg width="30" height="30" viewBox="0 0 30 30" fill="none" xmlns="http://www.w3.org/2000/svg">
<path d="M26.4611 16.47C26.5227 15.99 26.569 15.51 26.569 15C26.569 14.49 26.5227 14.01 26.4611 13.53L29.7148 11.055C30.0078 10.83 30.0849 10.425 29.8999 10.095L26.8157 4.905C26.677 4.665 26.4148 4.53 26.1372 4.53C26.0447 4.53 25.9522 4.545 25.8751 4.575L22.0353 6.075C21.2334 5.475 20.3698 4.98 19.4292 4.605L18.8432 0.63C18.7969 0.27 18.4731 0 18.0876 0H11.9192C11.5337 0 11.2099 0.27 11.1636 0.63L10.5776 4.605C9.63697 4.98 8.7734 5.49 7.97152 6.075L4.13174 4.575C4.03922 4.545 3.94669 4.53 3.85417 4.53C3.59202 4.53 3.32986 4.665 3.19107 4.905L0.106915 10.095C-0.0935556 10.425 -0.00103058 10.83 0.291965 11.055L3.54575 13.53C3.48407 14.01 3.43781 14.505 3.43781 15C3.43781 15.495 3.48407 15.99 3.54575 16.47L0.291965 18.945C-0.00103058 19.17 -0.0781348 19.575 0.106915 19.905L3.19107 25.095C3.32986 25.335 3.59202 25.47 3.86959 25.47C3.96211 25.47 4.05464 25.455 4.13174 25.425L7.97152 23.925C8.7734 24.525 9.63697 25.02 10.5776 25.395L11.1636 29.37C11.2099 29.73 11.5337 30 11.9192 30H18.0876C18.4731 30 18.7969 29.73 18.8432 29.37L19.4292 25.395C20.3698 25.02 21.2334 24.51 22.0353 23.925L25.8751 25.425C25.9676 25.455 26.0601 25.47 26.1526 25.47C26.4148 25.47 26.677 25.335 26.8157 25.095L29.8999 19.905C30.0849 19.575 30.0078 19.17 29.7148 18.945L26.4611 16.47ZM23.4077 13.905C23.4694 14.37 23.4848 14.685 23.4848 15C23.4848 15.315 23.454 15.645 23.4077 16.095L23.1918 17.79L24.5643 18.84L26.2297 20.1L25.1503 21.915L23.1918 21.15L21.5881 20.52L20.2002 21.54C19.5371 22.02 18.9049 22.38 18.2726 22.635L16.638 23.28L16.3913 24.975L16.0829 27H13.924L13.631 24.975L13.3842 23.28L11.7496 22.635C11.0865 22.365 10.4697 22.02 9.85286 21.57L8.44957 20.52L6.81496 21.165L4.85652 21.93L3.77706 20.115L5.44251 18.855L6.81496 17.805L6.59907 16.11C6.55281 15.645 6.52197 15.3 6.52197 15C6.52197 14.7 6.55281 14.355 6.59907 13.905L6.81496 12.21L5.44251 11.16L3.77706 9.9L4.85652 8.085L6.81496 8.85L8.41873 9.48L9.8066 8.46C10.4697 7.98 11.1019 7.62 11.7342 7.365L13.3688 6.72L13.6155 5.025L13.924 3H16.0674L16.3604 5.025L16.6072 6.72L18.2418 7.365C18.9049 7.635 19.5217 7.98 20.1385 8.43L21.5418 9.48L23.1764 8.835L25.1349 8.07L26.2143 9.885L24.5643 11.16L23.1918 12.21L23.4077 13.905ZM15.0034 9C11.5954 9 8.83509 11.685 8.83509 15C8.83509 18.315 11.5954 21 15.0034 21C18.4114 21 21.1717 18.315 21.1717 15C21.1717 11.685 18.4114 9 15.0034 9ZM15.0034 18C13.3071 18 11.9192 16.65 11.9192 15C11.9192 13.35 13.3071 12 15.0034 12C16.6997 12 18.0876 13.35 18.0876 15C18.0876 16.65 16.6997 18 15.0034 18Z" fill="#5C6898"/>
</svg>
