<svg width="30" height="30" viewBox="0 0 30 30" fill="none" xmlns="http://www.w3.org/2000/svg">
<path d="M21.8169 16.5C22.9415 16.5 23.9311 15.885 24.4409 14.955L29.8089 5.22C30.3637 4.23 29.644 3 28.5044 3H6.31266L4.90318 0H0V3H2.99889L8.39688 14.385L6.37263 18.045C5.27804 20.055 6.71751 22.5 8.99666 22.5H26.99V19.5H8.99666L10.646 16.5H21.8169ZM7.73713 6H25.9554L21.8169 13.5H11.2908L7.73713 6ZM8.99666 24C7.34727 24 6.01277 25.35 6.01277 27C6.01277 28.65 7.34727 30 8.99666 30C10.646 30 11.9955 28.65 11.9955 27C11.9955 25.35 10.646 24 8.99666 24ZM23.9911 24C22.3417 24 21.0072 25.35 21.0072 27C21.0072 28.65 22.3417 30 23.9911 30C25.6405 30 26.99 28.65 26.99 27C26.99 25.35 25.6405 24 23.9911 24Z" fill="#5C6898"/>
</svg>
