<svg width="35" height="35" viewBox="0 0 35 35" fill="none" xmlns="http://www.w3.org/2000/svg">
<path d="M8.55556 31.8182H14.7778C14.7778 33.5682 13.3778 35 11.6667 35C9.95556 35 8.55556 33.5682 8.55556 31.8182ZM5.44444 30.2273H17.8889V27.0455H5.44444V30.2273ZM23.3333 15.1136C23.3333 21.1909 19.1956 24.4364 17.4689 25.4545H5.86444C4.13778 24.4364 0 21.1909 0 15.1136C0 8.52727 5.22667 3.18182 11.6667 3.18182C18.1067 3.18182 23.3333 8.52727 23.3333 15.1136ZM20.2222 15.1136C20.2222 10.2932 16.38 6.36364 11.6667 6.36364C6.95333 6.36364 3.11111 10.2932 3.11111 15.1136C3.11111 19.0432 5.42889 21.3023 6.76667 22.2727H16.5667C17.9044 21.3023 20.2222 19.0432 20.2222 15.1136ZM30.9089 11.725L28.7778 12.7273L30.9089 13.7295L31.8889 15.9091L32.8689 13.7295L35 12.7273L32.8689 11.725L31.8889 9.54545L30.9089 11.725ZM27.2222 9.54545L28.6844 6.26818L31.8889 4.77273L28.6844 3.27727L27.2222 0L25.76 3.27727L22.5556 4.77273L25.76 6.26818L27.2222 9.54545Z" fill="#5C6898"/>
</svg>
