<svg width="23" height="20" viewBox="0 0 23 20" fill="none" xmlns="http://www.w3.org/2000/svg">
<path d="M11.2795 3.76926L11.7136 4.52908L12.1478 3.76928C12.4957 3.16033 13.0796 2.33699 13.9444 1.69648C14.8388 1.03408 15.8463 0.700897 16.9511 0.700897C20.0411 0.700897 22.3868 3.10969 22.3868 6.36679C22.3868 8.10477 21.6656 9.59187 20.3145 11.1532C18.9509 12.7291 16.9894 14.332 14.568 16.3082L14.8842 16.6956L14.568 16.3082L14.5677 16.3085C13.7491 16.9766 12.8192 17.7355 11.8523 18.5454L11.8521 18.5455C11.8171 18.5749 11.7682 18.5939 11.7137 18.5939C11.6591 18.5939 11.6103 18.5749 11.5753 18.5455L11.575 18.5453C10.6089 17.7362 9.67958 16.9777 8.8619 16.3103L8.85983 16.3086L8.54812 16.6906L8.85982 16.3086C6.43814 14.3322 4.47657 12.7292 3.11286 11.1533C1.76169 9.59187 1.04053 8.10477 1.04053 6.36679C1.04053 3.10969 3.38626 0.700897 6.47625 0.700897C7.58104 0.700897 8.58857 1.03408 9.4829 1.69648C10.3477 2.33699 10.9316 3.16029 11.2795 3.76926Z" stroke="black"/>
</svg>
