<svg width="30" height="29" viewBox="0 0 30 29" fill="none" xmlns="http://www.w3.org/2000/svg">
<path d="M25.8469 2.71506C25.6115 2.72207 25.388 2.82047 25.2239 2.9894L22.6026 5.61243L22.1549 5.16464C21.985 4.99584 21.7553 4.90109 21.5159 4.90109C21.2765 4.90109 21.0468 4.99584 20.877 5.16464L19.3424 6.70093L18.8964 6.25491C18.8105 6.16852 18.7081 6.10033 18.5953 6.05441C18.4825 6.00849 18.3616 5.98579 18.2398 5.98765C18.0035 5.99142 17.778 6.08732 17.6114 6.25491L15.53 8.33635C15.4607 8.38866 15.3993 8.45065 15.3477 8.52042L13.3672 10.5027C13.2913 10.5576 13.2245 10.6239 13.1689 10.6992L11.1724 12.6974C11.1122 12.7441 11.0581 12.7983 11.0114 12.8585L9.56005 14.3099L9.11402 13.8638C9.03019 13.7791 8.93046 13.7117 8.82056 13.6656C8.71065 13.6195 8.59272 13.5955 8.47353 13.595C8.35433 13.5945 8.23621 13.6175 8.12593 13.6627C8.01564 13.708 7.91536 13.7745 7.83083 13.8585L5.65559 16.0355C5.4864 16.2062 5.39192 16.437 5.39292 16.6773C5.39391 16.9176 5.49031 17.1477 5.6609 17.317L7.19188 18.8479L6.84144 19.1984L6.39365 18.7577C6.22384 18.5889 5.99414 18.4941 5.7547 18.4941C5.51527 18.4941 5.28556 18.5889 5.11576 18.7577L3.48389 20.3825C3.39924 20.4667 3.33206 20.5668 3.28623 20.6771C3.24039 20.7873 3.2168 20.9056 3.2168 21.025C3.2168 21.1444 3.24039 21.2626 3.28623 21.3729C3.33206 21.4831 3.39924 21.5832 3.48389 21.6674L7.83083 26.0162C7.91504 26.1008 8.01516 26.168 8.12542 26.2138C8.23567 26.2596 8.3539 26.2832 8.47331 26.2832C8.59272 26.2832 8.71095 26.2596 8.82121 26.2138C8.93146 26.168 9.03158 26.1008 9.11579 26.0162L10.7406 24.3825C10.9094 24.2127 11.0041 23.983 11.0041 23.7436C11.0041 23.5041 10.9094 23.2744 10.7406 23.1046L10.2999 22.6568L10.6503 22.3064L12.1831 23.8391C12.3529 24.0079 12.5826 24.1027 12.822 24.1027C13.0615 24.1027 13.2912 24.0079 13.461 23.8391L15.6362 21.6639C15.8045 21.4942 15.8989 21.2648 15.8989 21.0258C15.8989 20.7868 15.8045 20.5575 15.6362 20.3878L15.1866 19.9382L23.2434 11.8797C23.4116 11.71 23.506 11.4807 23.506 11.2417C23.506 11.0027 23.4116 10.7734 23.2434 10.6036L22.7991 10.1594L24.3354 8.62308C24.5046 8.45242 24.5991 8.22156 24.5981 7.98126C24.5971 7.74096 24.5007 7.5109 24.3301 7.34165L23.8858 6.8974L26.5018 4.27436C26.6338 4.14751 26.7242 3.98365 26.7613 3.80438C26.7983 3.6251 26.7802 3.43881 26.7094 3.27002C26.6385 3.10124 26.5181 2.95788 26.3642 2.85882C26.2102 2.75976 26.0299 2.70964 25.8469 2.71506ZM21.5159 7.09032L21.9088 7.48324C21.9403 7.52015 21.9746 7.55447 22.0115 7.5859L22.4097 7.98413L21.5177 8.87618L20.6239 7.98236L21.5159 7.09032ZM18.2539 8.18059L21.3177 11.2443L13.9052 18.6568L10.8415 15.5931L11.7371 14.6975L12.7211 15.6869C12.8044 15.774 12.9042 15.8437 13.0148 15.8918C13.1253 15.94 13.2443 15.9655 13.3649 15.9671C13.4854 15.9686 13.605 15.9461 13.7168 15.9009C13.8285 15.8556 13.9301 15.7885 14.0156 15.7035C14.1011 15.6185 14.1687 15.5173 14.2146 15.4058C14.2605 15.2943 14.2837 15.1748 14.2828 15.0542C14.2819 14.9337 14.257 14.8145 14.2095 14.7037C14.162 14.5929 14.0928 14.4927 14.0061 14.409L13.0167 13.4196L13.9088 12.5258L14.8964 13.5134C14.9789 13.6036 15.0788 13.6761 15.1901 13.7267C15.3014 13.7773 15.4218 13.8048 15.544 13.8077C15.6662 13.8105 15.7877 13.7886 15.9012 13.7432C16.0148 13.6979 16.1179 13.63 16.2046 13.5438C16.2912 13.4575 16.3594 13.3546 16.4053 13.2413C16.4511 13.128 16.4735 13.0065 16.4712 12.8843C16.4688 12.7621 16.4418 12.6416 16.3917 12.5301C16.3416 12.4186 16.2694 12.3184 16.1796 12.2355L15.1902 11.2461L16.0822 10.3505L17.0698 11.3381C17.1531 11.4253 17.2529 11.495 17.3635 11.5431C17.474 11.5912 17.593 11.6168 17.7136 11.6184C17.8341 11.6199 17.9538 11.5974 18.0655 11.5521C18.1772 11.5069 18.2788 11.4398 18.3643 11.3548C18.4498 11.2697 18.5174 11.1685 18.5633 11.0571C18.6092 10.9456 18.6323 10.8261 18.6315 10.7055C18.6306 10.585 18.6057 10.4658 18.5582 10.355C18.5107 10.2442 18.4415 10.144 18.3548 10.0603L17.3637 9.07087L18.2539 8.18059ZM8.46977 15.7842L13.2627 20.5772L13.7105 21.025L12.8167 21.9188L11.3583 20.4604C11.3368 20.4331 11.3137 20.4071 11.2893 20.3825L9.11579 18.209C9.09218 18.1864 9.06737 18.1652 9.04146 18.1453L7.57596 16.678L8.46977 15.7842ZM8.47331 20.1347L9.36358 21.025L8.37419 22.0143C8.28955 22.0986 8.22237 22.1987 8.17654 22.3089C8.1307 22.4192 8.10711 22.5374 8.10711 22.6568C8.10711 22.7762 8.1307 22.8945 8.17654 23.0047C8.22237 23.115 8.28955 23.2151 8.37419 23.2993L8.82199 23.7418L8.47331 24.0887L5.40957 21.025L5.75824 20.6781L6.19895 21.1258C6.28317 21.2105 6.38328 21.2777 6.49354 21.3235C6.6038 21.3693 6.72203 21.3929 6.84144 21.3929C6.96084 21.3929 7.07907 21.3693 7.18933 21.3235C7.29959 21.2777 7.3997 21.2105 7.48392 21.1258L8.47331 20.1347Z" fill="#5C6898"/>
</svg>
