<svg width="34" height="33" viewBox="0 0 34 33" fill="none" xmlns="http://www.w3.org/2000/svg">
<path d="M17 10C19.7614 10 22 8.20914 22 6C22 3.79086 19.7614 2 17 2C14.2386 2 12 3.79086 12 6C12 8.20914 14.2386 10 17 10Z" fill="#F9E9FC" fill-opacity="0.6" stroke="#5F363A" stroke-width="3" stroke-linecap="round" stroke-linejoin="round"/>
<path d="M27.6688 24H6.33125C3.93917 24 2 25.567 2 27.5C2 29.433 3.93917 31 6.33125 31H27.6688C30.0608 31 32 29.433 32 27.5C32 25.567 30.0608 24 27.6688 24Z" fill="#5C6898" stroke="#5F363A" stroke-width="3" stroke-linecap="round" stroke-linejoin="round"/>
<path d="M24.7354 17H9.26462C6.90933 17 5 18.567 5 20.5C5 22.433 6.90933 24 9.26462 24H24.7354C27.0907 24 29 22.433 29 20.5C29 18.567 27.0907 17 24.7354 17Z" fill="#737FB1" fill-opacity="0.6" stroke="#5F363A" stroke-width="3" stroke-linecap="round" stroke-linejoin="round"/>
<path d="M21.842 9H12.158C9.8616 9 8 10.7909 8 13C8 15.2091 9.8616 17 12.158 17H21.842C24.1384 17 26 15.2091 26 13C26 10.7909 24.1384 9 21.842 9Z" stroke="#5F363A" stroke-width="3" stroke-linecap="round" stroke-linejoin="round"/>
</svg>
