<svg width="20" height="20" viewBox="0 0 20 20" fill="none" xmlns="http://www.w3.org/2000/svg">
<path fill-rule="evenodd" clip-rule="evenodd" d="M20 14.5455V17.2727H17V20H14V17.2727H11V14.5455H14V11.8182H17V14.5455H20ZM5.5 12.7273H9V15.4545H5.5C4.121 15.4545 3 16.4736 3 17.7273V20H0V17.7273C0 14.9709 2.468 12.7273 5.5 12.7273ZM9 8.18182C7.346 8.18182 6 6.95818 6 5.45455C6 3.95091 7.346 2.72727 9 2.72727C10.654 2.72727 12 3.95091 12 5.45455C12 6.95818 10.654 8.18182 9 8.18182ZM15 5.45455C15 2.44636 12.309 0 9 0C5.691 0 3 2.44636 3 5.45455C3 8.46273 5.691 10.9091 9 10.9091C12.309 10.9091 15 8.46273 15 5.45455Z" fill="#5C6898"/>
</svg>
