<svg width="28" height="30" viewBox="0 0 28 30" fill="none" xmlns="http://www.w3.org/2000/svg">
<path d="M14.1279 21.5945C14.0687 21.5945 14.0108 21.5934 13.9516 21.5934C13.7664 21.5873 13.5913 21.5241 13.4633 21.4172C13.3354 21.3102 13.2645 21.1678 13.2656 21.0201C13.2668 20.8723 13.3398 20.7306 13.4694 20.6249C13.599 20.5192 13.775 20.4577 13.9603 20.4534C14.0122 20.4611 14.0682 20.4545 14.121 20.4545C19.144 20.4545 22.7394 18.0999 23.998 13.9785C24.0379 13.8464 24.136 13.73 24.2744 13.6505C24.4127 13.571 24.5823 13.5337 24.7522 13.5454C25.566 13.601 26.0131 13.2549 26.244 12.9563C26.6089 12.4903 26.669 11.8255 26.3812 11.4446C26.2339 11.25 26.02 11.1699 25.7033 11.1831C25.3223 11.2163 24.9666 10.965 24.9409 10.6507C24.9349 10.5759 24.9476 10.5009 24.9781 10.4299C25.0086 10.359 25.0563 10.2935 25.1185 10.2373C25.1808 10.1811 25.2563 10.1352 25.3408 10.1022C25.4253 10.0693 25.5171 10.0499 25.611 10.0453C26.4469 10.0076 27.1877 10.2977 27.6123 10.8593C28.1797 11.6093 28.1186 12.7193 27.4645 13.5578C26.9587 14.2054 26.1724 14.5976 25.2525 14.6755C23.7093 19.0851 19.6865 21.5945 14.1279 21.5945Z" fill="#5C6898"/>
<path d="M9.66449 12.1767C10.1598 12.1767 10.5614 11.8578 10.5614 11.4644C10.5614 11.071 10.1598 10.7521 9.66449 10.7521C9.16914 10.7521 8.76758 11.071 8.76758 11.4644C8.76758 11.8578 9.16914 12.1767 9.66449 12.1767Z" fill="#5C6898"/>
<path d="M9.66462 12.7463C8.77459 12.7463 8.0498 12.1719 8.0498 11.4648C8.0498 10.7576 8.77505 10.1821 9.66462 10.1821C10.5551 10.1821 11.279 10.7579 11.279 11.4648C11.279 12.1716 10.5546 12.7463 9.66462 12.7463ZM9.66462 11.3221C9.61714 11.3221 9.5716 11.3371 9.53803 11.3639C9.50446 11.3906 9.4856 11.4269 9.4856 11.4648C9.4856 11.6206 9.84363 11.6206 9.84363 11.4648C9.84369 11.446 9.8391 11.4274 9.83013 11.4101C9.82115 11.3928 9.80797 11.377 9.79133 11.3638C9.7747 11.3505 9.75494 11.34 9.73319 11.3328C9.71145 11.3257 9.68814 11.322 9.66462 11.3221Z" fill="#5C6898"/>
<path d="M18.5429 12.0355C19.0383 12.0355 19.4398 11.7166 19.4398 11.3232C19.4398 10.9298 19.0383 10.6108 18.5429 10.6108C18.0476 10.6108 17.646 10.9298 17.646 11.3232C17.646 11.7166 18.0476 12.0355 18.5429 12.0355Z" fill="#5C6898"/>
<path d="M18.5431 12.6059C17.6526 12.6059 16.9287 12.0304 16.9287 11.3232C16.9287 10.616 17.6526 10.0409 18.5431 10.0409C19.4335 10.0409 20.1579 10.6164 20.1579 11.3232C20.1579 12.03 19.4326 12.6059 18.5431 12.6059ZM18.5431 11.1809C18.5195 11.1808 18.4962 11.1845 18.4745 11.1916C18.4527 11.1988 18.433 11.2093 18.4163 11.2225C18.3997 11.2358 18.3865 11.2516 18.3775 11.2689C18.3686 11.2862 18.364 11.3048 18.364 11.3235C18.364 11.4816 18.7221 11.4816 18.7221 11.3235C18.7221 11.2857 18.7032 11.2494 18.6696 11.2227C18.6361 11.1959 18.5905 11.1809 18.5431 11.1809Z" fill="#5C6898"/>
<path d="M14.123 16.53C14.4703 16.53 14.7518 16.2111 14.7518 15.8177C14.7518 15.4243 14.4703 15.1054 14.123 15.1054C13.7757 15.1054 13.4941 15.4243 13.4941 15.8177C13.4941 16.2111 13.7757 16.53 14.123 16.53Z" fill="#5C6898"/>
<path d="M14.1231 17.1004C14.8667 17.1004 15.4694 16.5261 15.4694 15.8177C15.4694 15.1093 14.8667 14.535 14.1231 14.535C13.3796 14.535 12.7769 15.1093 12.7769 15.8177C12.7769 16.5261 13.3796 17.1004 14.1231 17.1004Z" fill="#5C6898"/>
<path d="M13.872 21.5945C8.31331 21.5945 4.29052 19.0862 2.74731 14.6755C1.82745 14.5976 1.04116 14.2057 0.53487 13.5578C-0.118766 12.7193 -0.179815 11.6096 0.387526 10.8593C0.760704 10.3646 1.37073 10.0763 2.09047 10.0441C2.43381 4.45427 7.68492 0 14.0909 0C20.7177 0 26.1088 4.76707 26.1088 10.6266C26.1088 10.9412 25.7875 11.1966 25.3909 11.1966C25.2968 11.1967 25.2037 11.1821 25.1167 11.1535C25.0297 11.125 24.9506 11.083 24.884 11.0301C24.8174 10.9771 24.7645 10.9143 24.7284 10.845C24.6923 10.7758 24.6736 10.7016 24.6735 10.6266C24.6735 5.39598 19.9264 1.14 14.0909 1.14C8.25548 1.14 3.50836 5.39598 3.50836 10.6266C3.50836 10.7813 3.42895 10.9291 3.28987 11.0363C3.14941 11.1443 2.9658 11.201 2.76613 11.1966L2.31814 11.1841C1.98673 11.1622 1.76594 11.25 1.6186 11.4446C1.3308 11.8251 1.39093 12.4902 1.75539 12.9567C1.98673 13.2538 2.43197 13.5944 3.24764 13.5457C3.41714 13.5356 3.58567 13.5735 3.72361 13.6527C3.86154 13.7318 3.96005 13.8472 4.0018 13.9785C5.27327 18.1412 8.86505 20.4959 14.0312 20.4534C14.4104 20.4234 14.7519 20.7018 14.7574 21.0168C14.7584 21.0918 14.7409 21.1662 14.7058 21.2358C14.6707 21.3054 14.6187 21.3688 14.5529 21.4224C14.487 21.4759 14.4085 21.5186 14.3219 21.5479C14.2353 21.5773 14.1423 21.5927 14.0482 21.5934C13.989 21.5934 13.9303 21.5945 13.872 21.5945Z" fill="#5C6898"/>
<path d="M23.0316 30L5.89751 29.9978C4.84683 29.9978 3.91779 29.4757 3.58684 28.6976C3.25313 27.9124 3.11084 27.2568 3.11084 26.5054V25.8896C3.11084 23.1721 5.01942 20.6982 8.09068 19.4323C8.25948 19.3623 8.45627 19.3485 8.6378 19.3941C8.81933 19.4396 8.97073 19.5407 9.05874 19.6752C9.24097 19.9548 9.10418 20.2987 8.75212 20.4435C6.15777 21.5133 4.54617 23.5998 4.54617 25.8896V26.5054C4.54617 27.1346 4.66185 27.6633 4.94643 28.3324C5.08047 28.6463 5.46328 28.8578 5.89843 28.8578L23.0325 28.86C23.4607 28.86 23.8518 28.6441 23.9836 28.3332C24.2672 27.6644 24.3829 27.1343 24.3829 26.5054V25.8896C24.3829 23.4457 22.5473 21.2396 19.7069 20.2676C19.6207 20.2378 19.5427 20.1949 19.4774 20.1411C19.412 20.0874 19.3605 20.0239 19.3259 19.9543C19.2561 19.8138 19.2591 19.6569 19.3344 19.5181C19.4097 19.3794 19.5511 19.2701 19.7274 19.2144C19.9038 19.1588 20.1006 19.1612 20.2747 19.2212C23.6421 20.3737 25.8182 22.9906 25.8182 25.8896V26.5054C25.8182 27.2579 25.6759 27.9139 25.3432 28.6976C25.0131 29.4768 24.0836 30 23.0316 30ZM14.0826 4.99207H14.0344C13.8443 4.98966 13.6632 4.9272 13.5308 4.8184C13.3984 4.7096 13.3257 4.56337 13.3285 4.41183C13.3322 4.26215 13.4095 4.11962 13.5438 4.01493C13.6781 3.91024 13.8585 3.85175 14.0464 3.85207C14.0556 3.85097 14.0702 3.85207 14.0822 3.85207C14.8533 3.85207 15.4868 3.3589 15.4992 2.74427C15.5042 2.54053 15.4583 2.33803 15.3641 2.14859C15.27 1.95914 15.1294 1.78654 14.9506 1.64085C14.7724 1.49406 14.5595 1.37679 14.3242 1.2958C14.0889 1.2148 13.8358 1.17168 13.5796 1.1689C13.3897 1.16659 13.2088 1.10435 13.0764 0.995851C12.9441 0.887348 12.8711 0.741435 12.8736 0.59012C12.877 0.440214 12.9541 0.297369 13.0884 0.192384C13.2227 0.087399 13.4034 0.0286847 13.5915 0.0289007H13.6034C14.5077 0.0398763 15.3527 0.331828 15.982 0.848413C16.6113 1.365 16.9492 2.04512 16.9345 2.76439C16.9088 4.00024 15.6336 4.99207 14.0826 4.99207Z" fill="#5C6898"/>
<path d="M8.06702 29.9978C7.97291 29.998 7.87967 29.9834 7.79264 29.9549C7.70561 29.9263 7.6265 29.8844 7.55982 29.8314C7.49315 29.7785 7.44022 29.7156 7.40407 29.6463C7.36791 29.5771 7.34924 29.5028 7.34912 29.4278V20.4578C7.34912 20.1432 7.67043 19.8878 8.06702 19.8878C8.16113 19.8876 8.25437 19.9022 8.3414 19.9308C8.42842 19.9593 8.50754 20.0013 8.57421 20.0542C8.64089 20.1071 8.69382 20.17 8.72997 20.2393C8.76612 20.3086 8.7848 20.3828 8.78492 20.4578V29.4278C8.78492 29.7428 8.46361 29.9978 8.06702 29.9978ZM20.5178 29.9978C20.4237 29.998 20.3305 29.9833 20.2435 29.9548C20.1566 29.9262 20.0775 29.8842 20.0109 29.8313C19.9442 29.7784 19.8914 29.7155 19.8552 29.6463C19.8191 29.577 19.8004 29.5028 19.8003 29.4278V20.4578C19.8003 20.1432 20.1216 19.8878 20.5178 19.8878C20.6119 19.8876 20.7051 19.9022 20.7921 19.9308C20.8792 19.9593 20.9583 20.0013 21.025 20.0542C21.0916 20.1071 21.1446 20.17 21.1807 20.2393C21.2169 20.3086 21.2355 20.3828 21.2357 20.4578V29.4278C21.2357 29.7428 20.9144 29.9978 20.5178 29.9978ZM14.3004 26.8562C12.3198 26.8562 10.7077 25.5757 10.7077 24.0026V20.8588C10.7077 20.5438 11.029 20.2888 11.4256 20.2888C11.5197 20.2887 11.6129 20.3033 11.6999 20.3319C11.7868 20.3604 11.8659 20.4024 11.9325 20.4553C11.9991 20.5082 12.052 20.5711 12.0882 20.6404C12.1243 20.7096 12.1429 20.7838 12.1431 20.8588V24.0026C12.1431 24.9479 13.1116 25.7159 14.3004 25.7159C15.4897 25.7159 16.4578 24.9476 16.4578 24.0026V20.8588C16.4578 20.5438 16.7791 20.2888 17.1757 20.2888C17.2698 20.2887 17.3629 20.3033 17.4499 20.3319C17.5369 20.3604 17.616 20.4024 17.6826 20.4553C17.7492 20.5082 17.8021 20.5711 17.8382 20.6404C17.8743 20.7096 17.893 20.7838 17.8931 20.8588V24.0026C17.8931 25.5757 16.2811 26.8562 14.3004 26.8562Z" fill="#5C6898"/>
</svg>
