<svg width="34" height="34" viewBox="0 0 34 34" fill="none" xmlns="http://www.w3.org/2000/svg">
<path d="M16.5755 21.75L8.50879 17V8.66667C8.50879 4.98333 11.5505 2 15.3022 2C17.6306 2 19.6856 3.15 20.9106 4.90167" stroke="#5C6898" stroke-width="2.5" stroke-linecap="round" stroke-linejoin="round"/>
<path d="M13 28.9666C13.6265 29.9029 14.4747 30.6698 15.4692 31.199C16.4636 31.7282 17.5735 32.0034 18.7001 32C22.4501 32 25.4935 29.0166 25.4935 25.3333V17L17.2667 12.1617" stroke="#5C6898" stroke-width="2.5" stroke-linecap="round" stroke-linejoin="round"/>
<path d="M12.7534 19.5V9.78332L20.1068 5.61665C23.3569 3.77498 27.5119 4.86665 29.3886 8.05498C29.9633 9.02697 30.277 10.131 30.2992 11.26C30.3214 12.389 30.0514 13.5045 29.5153 14.4983" stroke="#5C6898" stroke-width="2.5" stroke-linecap="round" stroke-linejoin="round"/>
<path d="M4.48326 19.5C3.94693 20.4937 3.6766 21.6091 3.6985 22.7381C3.7204 23.8671 4.0338 24.9712 4.60827 25.9433C6.48495 29.1317 10.6417 30.2233 13.8917 28.3833L21.2451 24.2167L21.4051 14.89" stroke="#5C6898" stroke-width="2.5" stroke-linecap="round" stroke-linejoin="round"/>
<path d="M25.4944 26.3833C26.6304 26.3393 27.7375 26.012 28.7147 25.4309C29.6919 24.8499 30.5082 24.0337 31.0895 23.0566C32.9645 19.8683 31.8511 15.79 28.6028 13.95L21.2477 9.78329L12.8159 14.375" stroke="#5C6898" stroke-width="2.5" stroke-linecap="round" stroke-linejoin="round"/>
<path d="M8.50848 7.61667C7.37215 7.66035 6.2648 7.9876 5.28727 8.56864C4.30975 9.14967 3.49312 9.96602 2.91175 10.9433C1.03506 14.1317 2.14841 18.21 5.39844 20.05L12.7535 24.2167L21.167 19.6333" stroke="#5C6898" stroke-width="2.5" stroke-linecap="round" stroke-linejoin="round"/>
</svg>
