<svg width="18" height="18" viewBox="0 0 18 18" fill="none" xmlns="http://www.w3.org/2000/svg">
<path d="M0.666504 8.83333C0.666504 10.4815 1.15525 12.0927 2.07092 13.4631C2.9866 14.8335 4.28809 15.9016 5.81081 16.5323C7.33353 17.1631 9.00908 17.3281 10.6256 17.0065C12.2421 16.685 13.727 15.8913 14.8924 14.7259C16.0578 13.5605 16.8515 12.0756 17.173 10.4591C17.4946 8.84258 17.3296 7.16702 16.6988 5.6443C16.0681 4.12159 15 2.8201 13.6296 1.90442C12.2592 0.988742 10.648 0.5 8.99984 0.5C7.90549 0.5 6.82186 0.715548 5.81081 1.13434C4.79976 1.55313 3.8811 2.16696 3.10728 2.94078C1.54448 4.50358 0.666504 6.6232 0.666504 8.83333ZM8.1665 4.66667C8.1665 4.44565 8.2543 4.23369 8.41058 4.07741C8.56686 3.92113 8.77882 3.83333 8.99984 3.83333C9.22085 3.83333 9.43281 3.92113 9.58909 4.07741C9.74537 4.23369 9.83317 4.44565 9.83317 4.66667V8.35167L11.5815 9.36167C11.7713 9.47296 11.9095 9.65482 11.9657 9.86757C12.0219 10.0803 11.9918 10.3067 11.8817 10.4972C11.7717 10.6878 11.5908 10.8271 11.3784 10.8848C11.166 10.9424 10.9395 10.9138 10.7482 10.805L8.58317 9.555C8.45677 9.48154 8.35181 9.37627 8.27871 9.24967C8.20561 9.12306 8.16693 8.97953 8.1665 8.83333V4.66667Z" fill="#808080"/>
</svg>
