<svg width="31" height="28" viewBox="0 0 31 28" fill="none" xmlns="http://www.w3.org/2000/svg">
<mask id="path-1-inside-1_218_2267" fill="white">
<path d="M14.3449 27.9999C11.9887 28.01 9.68581 27.2187 7.74327 25.7314C5.80072 24.2442 4.3109 22.1317 3.47252 19.6757L2.98923 19.7837C2.33611 19.926 1.65904 19.7736 1.10652 19.3599C0.832853 19.1561 0.598356 18.8936 0.416744 18.5876C0.235132 18.2815 0.110051 17.9382 0.0488167 17.5776C0.0177567 17.3982 0.00141729 17.2159 0 17.0331C0.00172349 16.3875 0.203072 15.7623 0.57007 15.2631C0.937068 14.7638 1.44725 14.421 2.01452 14.2926L2.72074 14.1365C2.92028 10.7816 4.27772 7.64356 6.50793 5.38145C8.73814 3.11934 11.6676 1.90923 14.6808 2.00531C17.6941 2.1014 20.5568 3.4962 22.6675 5.89673C24.7782 8.29726 25.9726 11.5167 26 14.8788V15.004C25.9983 18.4508 24.7697 21.7558 22.5842 24.1927C20.3987 26.6295 17.4352 27.9989 14.3449 27.9999ZM4.01195 17.7264C4.18524 17.7262 4.35405 17.7877 4.49381 17.902C4.63357 18.0163 4.73697 18.1773 4.78896 18.3617C5.50922 20.9078 7.02257 23.0824 9.05533 24.4922C11.0881 25.9021 13.5061 26.4541 15.872 26.0485C18.2379 25.6429 20.3956 24.3064 21.9549 22.2807C23.5142 20.255 24.3721 17.6739 24.3736 15.004V14.8951C24.3395 11.9544 23.268 9.14714 21.3913 7.0813C19.5146 5.01545 16.9838 3.85741 14.347 3.85801C11.7102 3.8586 9.17977 5.01779 7.30382 7.08448C5.42787 9.15118 4.35744 11.959 4.32438 14.8997C4.32251 15.1082 4.25628 15.3097 4.13685 15.4702C4.01741 15.6307 3.85206 15.7404 3.66861 15.7808L2.33427 16.0758C2.13539 16.1209 1.95655 16.2411 1.8279 16.4161C1.69924 16.5912 1.62866 16.8104 1.62805 17.0368C1.62929 17.1072 1.63637 17.1774 1.6492 17.2464C1.67155 17.3696 1.71556 17.4867 1.77867 17.5909C1.84179 17.6951 1.92278 17.7844 2.01696 17.8535C2.21158 17.9983 2.44932 18.0524 2.67925 18.0041L3.85167 17.741C3.90455 17.7304 3.95823 17.7255 4.01195 17.7264Z"/>
</mask>
<path d="M14.3449 27.9999C11.9887 28.01 9.68581 27.2187 7.74327 25.7314C5.80072 24.2442 4.3109 22.1317 3.47252 19.6757L2.98923 19.7837C2.33611 19.926 1.65904 19.7736 1.10652 19.3599C0.832853 19.1561 0.598356 18.8936 0.416744 18.5876C0.235132 18.2815 0.110051 17.9382 0.0488167 17.5776C0.0177567 17.3982 0.00141729 17.2159 0 17.0331C0.00172349 16.3875 0.203072 15.7623 0.57007 15.2631C0.937068 14.7638 1.44725 14.421 2.01452 14.2926L2.72074 14.1365C2.92028 10.7816 4.27772 7.64356 6.50793 5.38145C8.73814 3.11934 11.6676 1.90923 14.6808 2.00531C17.6941 2.1014 20.5568 3.4962 22.6675 5.89673C24.7782 8.29726 25.9726 11.5167 26 14.8788V15.004C25.9983 18.4508 24.7697 21.7558 22.5842 24.1927C20.3987 26.6295 17.4352 27.9989 14.3449 27.9999ZM4.01195 17.7264C4.18524 17.7262 4.35405 17.7877 4.49381 17.902C4.63357 18.0163 4.73697 18.1773 4.78896 18.3617C5.50922 20.9078 7.02257 23.0824 9.05533 24.4922C11.0881 25.9021 13.5061 26.4541 15.872 26.0485C18.2379 25.6429 20.3956 24.3064 21.9549 22.2807C23.5142 20.255 24.3721 17.6739 24.3736 15.004V14.8951C24.3395 11.9544 23.268 9.14714 21.3913 7.0813C19.5146 5.01545 16.9838 3.85741 14.347 3.85801C11.7102 3.8586 9.17977 5.01779 7.30382 7.08448C5.42787 9.15118 4.35744 11.959 4.32438 14.8997C4.32251 15.1082 4.25628 15.3097 4.13685 15.4702C4.01741 15.6307 3.85206 15.7404 3.66861 15.7808L2.33427 16.0758C2.13539 16.1209 1.95655 16.2411 1.8279 16.4161C1.69924 16.5912 1.62866 16.8104 1.62805 17.0368C1.62929 17.1072 1.63637 17.1774 1.6492 17.2464C1.67155 17.3696 1.71556 17.4867 1.77867 17.5909C1.84179 17.6951 1.92278 17.7844 2.01696 17.8535C2.21158 17.9983 2.44932 18.0524 2.67925 18.0041L3.85167 17.741C3.90455 17.7304 3.95823 17.7255 4.01195 17.7264Z" fill="#5C6898"/>
<path d="M14.3449 27.9999L14.3443 25.9999L14.3363 25.9999L14.3449 27.9999ZM3.47252 19.6757L5.36528 19.0296L4.78609 17.3329L3.03639 17.7238L3.47252 19.6757ZM2.98923 19.7837L3.41505 21.7378L3.42537 21.7355L2.98923 19.7837ZM1.10652 19.3599L2.30525 17.7589L2.30086 17.7557L1.10652 19.3599ZM0.0488167 17.5776L2.0206 17.2428L2.01952 17.2365L0.0488167 17.5776ZM0 17.0331L-1.99999 17.0278L-2.00002 17.0382L-1.99994 17.0486L0 17.0331ZM2.01452 14.2926L1.5829 12.3397L1.57283 12.342L2.01452 14.2926ZM2.72074 14.1365L3.15235 16.0894L4.62751 15.7633L4.71721 14.2552L2.72074 14.1365ZM26 14.8788H28V14.8707L27.9999 14.8625L26 14.8788ZM26 15.004L28 15.005V15.004H26ZM4.01195 17.7264L3.97648 19.7261L3.9954 19.7265L4.01432 19.7264L4.01195 17.7264ZM4.78896 18.3617L2.86401 18.9044L2.86448 18.9061L4.78896 18.3617ZM24.3736 15.004L26.3736 15.0051V15.004H24.3736ZM24.3736 14.8951H26.3736V14.8835L26.3734 14.8719L24.3736 14.8951ZM4.32438 14.8997L2.3245 14.8772L2.32446 14.8817L4.32438 14.8997ZM3.66861 15.7808L3.23793 13.8277L3.23697 13.828L3.66861 15.7808ZM2.33427 16.0758L1.90263 14.1229L1.89193 14.1253L2.33427 16.0758ZM1.62805 17.0368L-0.371941 17.0314L-0.371996 17.0516L-0.371641 17.0718L1.62805 17.0368ZM1.6492 17.2464L3.61713 16.8895L3.61546 16.8806L1.6492 17.2464ZM2.01696 17.8535L3.21102 16.249L3.20028 16.2411L2.01696 17.8535ZM2.67925 18.0041L3.09016 19.9615L3.10373 19.9586L3.11727 19.9556L2.67925 18.0041ZM3.85167 17.741L3.45824 15.78L3.43589 15.7845L3.41365 15.7895L3.85167 17.741ZM14.3363 25.9999C12.4405 26.0081 10.5648 25.3728 8.95909 24.1434L6.52744 27.3194C8.80683 29.0646 11.537 30.012 14.3535 29.9999L14.3363 25.9999ZM8.95909 24.1434C7.34974 22.9113 6.08417 21.1355 5.36528 19.0296L1.57977 20.3218C2.53764 23.1278 4.2517 25.5771 6.52744 27.3194L8.95909 24.1434ZM3.03639 17.7238L2.5531 17.8318L3.42537 21.7355L3.90866 21.6276L3.03639 17.7238ZM2.56343 17.8295C2.49822 17.8437 2.41048 17.8377 2.30524 17.7589L-0.0922003 20.9608C0.907595 21.7094 2.17399 22.0082 3.41504 21.7378L2.56343 17.8295ZM2.30086 17.7557C2.24833 17.7165 2.18929 17.6555 2.13667 17.5668L-1.30319 19.6083C-0.992575 20.1317 -0.582625 20.5957 -0.0878202 20.9641L2.30086 17.7557ZM2.13667 17.5668C2.08391 17.4779 2.04186 17.3681 2.02059 17.2428L-1.92295 17.9125C-1.82176 18.5083 -1.61364 19.0851 -1.30319 19.6083L2.13667 17.5668ZM2.01952 17.2365C2.00714 17.165 2.00051 17.0917 1.99994 17.0176L-1.99994 17.0486C-1.99768 17.3402 -1.97163 17.6313 -1.92189 17.9187L2.01952 17.2365ZM1.99999 17.0385C2.00063 16.7982 2.07689 16.59 2.18154 16.4476L-1.0414 14.0785C-1.67074 14.9347 -1.99719 15.9768 -1.99999 17.0278L1.99999 17.0385ZM2.18154 16.4476C2.2837 16.3087 2.39058 16.2581 2.45621 16.2432L1.57283 12.342C0.503911 12.584 -0.409561 13.219 -1.0414 14.0785L2.18154 16.4476ZM2.44613 16.2455L3.15235 16.0894L2.28913 12.1836L1.5829 12.3397L2.44613 16.2455ZM4.71721 14.2552C4.8898 11.3535 6.06296 8.68152 7.93215 6.78558L5.08371 3.97731C2.49249 6.6056 0.950756 10.2098 0.724268 14.0177L4.71721 14.2552ZM7.93215 6.78558C9.79461 4.89648 12.1938 3.92703 14.6171 4.0043L14.7446 0.00632977C11.1413 -0.108569 7.68167 1.34219 5.08371 3.97731L7.93215 6.78558ZM14.6171 4.0043C17.0415 4.08161 19.3952 5.20395 21.1655 7.21736L24.1694 4.5761C21.7184 1.78845 18.3467 0.121191 14.7446 0.00632977L14.6171 4.0043ZM21.1655 7.21736C22.9414 9.23718 23.9764 11.9864 24.0001 14.8951L27.9999 14.8625C27.9689 11.0471 26.6149 7.35734 24.1694 4.5761L21.1655 7.21736ZM24 14.8788V15.004H28V14.8788H24ZM24 15.003C23.9985 17.9858 22.9333 20.8078 21.0953 22.8573L24.0731 25.528C26.606 22.7037 27.998 18.9158 28 15.005L24 15.003ZM21.0953 22.8573C19.2636 24.8997 16.8297 25.9991 14.3443 25.9999L14.3455 29.9999C18.0407 29.9988 21.5338 28.3594 24.0731 25.528L21.0953 22.8573ZM4.01432 19.7264C3.70486 19.7268 3.42983 19.6155 3.22794 19.4504L5.75969 16.3536C5.27827 15.96 4.66561 15.7257 4.00959 15.7264L4.01432 19.7264ZM3.22794 19.4504C3.03013 19.2887 2.91617 19.0894 2.86401 18.9044L6.7139 17.8189C6.55778 17.2652 6.23702 16.7438 5.75969 16.3536L3.22794 19.4504ZM2.86448 18.9061C3.70152 21.865 5.47409 24.4424 7.91551 26.1357L10.1951 22.8488C8.57105 21.7224 7.31693 19.9506 6.71344 17.8173L2.86448 18.9061ZM7.91551 26.1357C10.3642 27.834 13.3102 28.5169 16.2099 28.0197L15.534 24.0773C13.702 24.3914 11.812 23.9702 10.1951 22.8488L7.91551 26.1357ZM16.2099 28.0197C19.1053 27.5234 21.6958 25.8962 23.5398 23.5006L20.3701 21.0607C19.0955 22.7166 17.3706 23.7624 15.534 24.0773L16.2099 28.0197ZM23.5398 23.5006C25.3806 21.1092 26.3719 18.0949 26.3736 15.0051L22.3736 15.003C22.3724 17.2529 21.6479 19.4008 20.3701 21.0607L23.5398 23.5006ZM26.3736 15.004V14.8951H22.3736V15.004H26.3736ZM26.3734 14.8719C26.334 11.4707 25.0962 8.18517 22.8717 5.73648L19.9109 8.42612C21.4398 10.1091 22.3449 12.4382 22.3737 14.9183L26.3734 14.8719ZM22.8717 5.73648C20.6408 3.28079 17.5834 1.85727 14.3465 1.85801L14.3474 5.85801C16.3842 5.85754 18.3884 6.75012 19.9109 8.42612L22.8717 5.73648ZM14.3465 1.85801C11.1097 1.85874 8.05282 3.28362 5.82292 5.74026L8.78472 8.42871C10.3067 6.75196 12.3107 5.85847 14.3474 5.85801L14.3465 1.85801ZM5.82292 5.74026C3.59936 8.18991 2.36274 11.4759 2.32451 14.8772L6.32426 14.9222C6.35213 12.442 7.25638 10.1124 8.78472 8.42871L5.82292 5.74026ZM2.32446 14.8817C2.32623 14.6855 2.3874 14.471 2.53241 14.2761L5.74128 16.6643C6.12517 16.1484 6.3188 15.531 6.3243 14.9176L2.32446 14.8817ZM2.53241 14.2761C2.67996 14.0779 2.91948 13.898 3.23793 13.8277L4.09928 17.7339C4.78463 17.5828 5.35486 17.1835 5.74128 16.6643L2.53241 14.2761ZM3.23697 13.828L1.90263 14.1229L2.76591 18.0286L4.10024 17.7337L3.23697 13.828ZM1.89193 14.1253C1.19158 14.2841 0.60963 14.6965 0.216271 15.2318L3.43952 17.6005C3.30346 17.7856 3.07921 17.9576 2.77662 18.0262L1.89193 14.1253ZM0.216271 15.2318C-0.174609 15.7637 -0.370237 16.3998 -0.371941 17.0314L3.62804 17.0422C3.62756 17.221 3.5731 17.4187 3.43952 17.6005L0.216271 15.2318ZM-0.371641 17.0718C-0.368467 17.2528 -0.35028 17.4336 -0.317054 17.6122L3.61546 16.8806C3.62302 16.9212 3.62704 16.9616 3.62774 17.0017L-0.371641 17.0718ZM-0.318704 17.6032C-0.254038 17.9598 -0.12517 18.3082 0.0680516 18.6272L3.4893 16.5547C3.55628 16.6653 3.59715 16.7794 3.61711 16.8895L-0.318704 17.6032ZM0.0680516 18.6272C0.261419 18.9464 0.518471 19.2346 0.833637 19.4659L3.20028 16.2411C3.32708 16.3342 3.42217 16.4439 3.4893 16.5547L0.0680516 18.6272ZM0.82293 19.4579C1.4602 19.9322 2.2789 20.1318 3.09016 19.9615L2.26833 16.0468C2.61974 15.973 2.96297 16.0645 3.21099 16.249L0.82293 19.4579ZM3.11727 19.9556L4.28969 19.6924L3.41365 15.7895L2.24122 16.0527L3.11727 19.9556ZM4.24511 19.7019C4.15743 19.7195 4.06732 19.7277 3.97648 19.7261L4.04743 15.7268C3.84914 15.7232 3.65167 15.7412 3.45824 15.78L4.24511 19.7019Z" fill="#5C6898" mask="url(#path-1-inside-1_218_2267)"/>
<mask id="path-3-inside-2_218_2267" fill="white">
<path d="M26.6092 21.0371C26.4561 21.0368 26.3034 21.0195 26.1529 20.9855L25.0242 20.7158C24.9175 20.6904 24.8165 20.6385 24.7278 20.5636C24.6391 20.4888 24.5646 20.3925 24.5093 20.2812C24.454 20.1698 24.419 20.0458 24.4067 19.9174C24.3943 19.7889 24.4049 19.6588 24.4377 19.5355C24.7306 18.435 24.8795 17.2877 24.8793 16.1335V16.0185C24.8792 15.8818 24.9046 15.7469 24.9538 15.6234C25.003 15.4999 25.0747 15.391 25.1637 15.3046C25.2527 15.2181 25.3568 15.1562 25.4684 15.1235C25.58 15.0908 25.6963 15.088 25.809 15.1153L27.0795 15.4145C27.6201 15.5446 28.1063 15.8924 28.4562 16.3991C28.8061 16.9058 28.9981 17.5404 29 18.1959C28.9986 18.3763 28.9839 18.5562 28.9558 18.7335C28.851 19.3808 28.5598 19.9645 28.1323 20.3844C27.7049 20.8044 27.1677 21.0345 26.6131 21.0352L26.6092 21.0371ZM26.1444 19.1037L26.4543 19.1773C26.5618 19.2019 26.6723 19.201 26.7794 19.1746C26.8866 19.1483 26.9883 19.0969 27.0787 19.0236C27.1695 18.9522 27.2474 18.8599 27.3078 18.7523C27.3682 18.6446 27.4099 18.5237 27.4304 18.3966C27.4419 18.3302 27.4481 18.2627 27.449 18.1949C27.4482 17.9648 27.3807 17.7421 27.2577 17.5643C27.1348 17.3865 26.964 17.2646 26.7743 17.219L26.3993 17.127C26.3564 17.793 26.2706 18.4541 26.1429 19.1046L26.1444 19.1037ZM12.4134 24.9914C11.915 25.0101 11.4237 24.8477 11.0051 24.5257C10.5865 24.2037 10.2605 23.7376 10.0707 23.1896C9.6094 21.6023 9.6094 19.8771 10.0707 18.2898C10.3131 17.6133 10.7567 17.0666 11.3167 16.7539C11.8767 16.4413 12.5139 16.3847 13.1068 16.5948C14.5766 17.0564 16.1225 17.0529 17.5908 16.5847C18.1795 16.3816 18.8104 16.4417 19.3643 16.7536C19.9183 17.0656 20.3569 17.6078 20.5975 18.2778C21.0601 19.8649 21.0615 21.5905 20.6014 23.1786C20.3587 23.856 19.9146 24.4034 19.3538 24.7162C18.793 25.0291 18.1549 25.0854 17.5614 24.8745C16.0951 24.4133 14.5528 24.4155 13.0874 24.8809C12.8683 24.9556 12.6414 24.9928 12.4134 24.9914ZM12.4065 18.3174C12.2298 18.3039 12.0536 18.3506 11.8985 18.4521C11.7434 18.5535 11.6159 18.7055 11.531 18.8901C11.1795 20.0878 11.1795 21.3916 11.531 22.5893C11.6432 22.8105 11.8136 22.9816 12.0158 23.0761C12.218 23.1706 12.4408 23.1834 12.6497 23.1123L12.6784 23.1031C14.4156 22.5498 16.2448 22.5498 17.9821 23.1031C18.1959 23.1818 18.4258 23.1725 18.6347 23.0768C18.8436 22.9811 19.0193 22.8045 19.1333 22.5755C19.4848 21.3778 19.4848 20.074 19.1333 18.8762C19.021 18.6552 18.8506 18.4842 18.6484 18.3897C18.4463 18.2952 18.2235 18.2824 18.0146 18.3533C16.2688 18.9136 14.4296 18.9171 12.6823 18.3634C12.5927 18.332 12.4998 18.3165 12.4065 18.3174ZM15.173 4.79172C15.0082 4.79154 14.8478 4.72895 14.7151 4.61306C14.5823 4.49717 14.4841 4.334 14.4347 4.14724C14.3959 3.99318 14.3681 3.83549 14.3518 3.67586C14.2372 3.00361 13.9061 2.4112 13.4291 2.02508C12.8969 1.69088 12.1345 1.81333 11.1654 2.38875C11.0743 2.44391 10.9749 2.4771 10.8729 2.48639C10.771 2.49569 10.6685 2.48091 10.5714 2.44291C10.4743 2.40491 10.3845 2.34443 10.3071 2.26498C10.2297 2.18553 10.1664 2.08866 10.1207 1.97997C10.075 1.87127 10.0478 1.7529 10.0408 1.63168C10.0338 1.51046 10.047 1.38879 10.0797 1.27367C10.1125 1.15856 10.1641 1.05228 10.2315 0.960972C10.299 0.869663 10.381 0.795126 10.4728 0.741659C11.9223 -0.118254 13.1641 -0.230577 14.1651 0.405611C14.5123 0.628915 14.8182 0.932936 15.0645 1.29959C15.6751 0.756992 16.4287 0.491238 17.1895 0.550157C17.395 0.550157 17.592 0.647156 17.7373 0.819817C17.8826 0.992478 17.9642 1.22666 17.9642 1.47084C17.9642 1.71501 17.8826 1.94919 17.7373 2.12185C17.592 2.29451 17.395 2.39151 17.1895 2.39151C16.9753 2.35596 16.7571 2.37483 16.5494 2.44689C16.3418 2.51894 16.1494 2.64253 15.9849 2.8095C15.8961 2.98193 15.8605 3.18566 15.8841 3.38584C15.9244 3.59484 15.9391 3.7311 15.9415 3.75412C15.9551 3.88363 15.9454 4.0151 15.913 4.13982C15.8806 4.26454 15.8263 4.37964 15.7536 4.4775C15.6809 4.57536 15.5916 4.65374 15.4915 4.70743C15.3914 4.76113 15.2828 4.78892 15.173 4.78896V4.79172ZM15.3705 16.1787C14.6002 16.171 13.8496 15.8884 13.216 15.3675C13.1312 15.3007 13.0584 15.2146 13.0015 15.1143C12.9447 15.014 12.9051 14.9013 12.8849 14.7828C12.8647 14.6642 12.8644 14.5421 12.8839 14.4234C12.9035 14.3048 12.9425 14.1918 12.9987 14.091C13.055 13.9903 13.1274 13.9036 13.2118 13.8361C13.2963 13.7686 13.391 13.7215 13.4908 13.6975C13.5905 13.6735 13.6933 13.6731 13.7931 13.6964C13.893 13.7196 13.9881 13.7659 14.0729 13.8328C14.4919 14.1639 14.9851 14.3373 15.4882 14.3304C15.9914 14.3235 16.4811 14.1366 16.8936 13.7941C17.0734 13.6758 17.2853 13.6472 17.4829 13.7146C17.6804 13.7821 17.8473 13.94 17.9468 14.1536C18.0464 14.3673 18.0704 14.6192 18.0137 14.8539C17.9569 15.0887 17.8241 15.287 17.6443 15.4053C16.9543 15.8895 16.1716 16.1557 15.3705 16.1787ZM9.77477 12.3404C9.60315 12.3404 9.43639 12.2727 9.30065 12.1479C9.16491 12.0231 9.06789 11.8482 9.02481 11.6508C8.98173 11.4534 8.99502 11.2445 9.06262 11.0571C9.13021 10.8696 9.24826 10.7141 9.39826 10.615C10.0578 10.1029 10.8298 9.83341 11.6176 9.84013C12.4054 9.84684 13.174 10.1295 13.8273 10.6528C13.9975 10.7882 14.1156 10.9982 14.1559 11.2369C14.1961 11.4756 14.1552 11.7236 14.042 11.9265C13.9288 12.1294 13.7526 12.2707 13.552 12.3197C13.3513 12.3686 13.1425 12.3211 12.9712 12.1875C12.5524 11.8556 12.059 11.6816 11.5556 11.6883C11.0522 11.695 10.5622 11.8822 10.1497 12.2253C10.035 12.3007 9.90594 12.3403 9.77477 12.3404ZM20.8934 12.3404C20.7623 12.3403 20.6332 12.3007 20.5185 12.2253C20.1059 11.8824 19.616 11.6954 19.1126 11.6887C18.6093 11.682 18.1159 11.8558 17.697 12.1875C17.5258 12.3068 17.3227 12.3436 17.1295 12.2902C16.9362 12.2368 16.7676 12.0973 16.6583 11.9005C16.5491 11.7037 16.5075 11.4646 16.5422 11.2324C16.5769 11.0003 16.6852 10.7928 16.8448 10.6528C17.498 10.1293 18.2667 9.84647 19.0545 9.83976C19.8423 9.83304 20.6143 10.1027 21.2738 10.615C21.4238 10.7141 21.5419 10.8696 21.6095 11.0571C21.677 11.2445 21.6903 11.4534 21.6473 11.6508C21.6042 11.8482 21.5072 12.0231 21.3714 12.1479C21.2357 12.2727 21.0689 12.3404 20.8973 12.3404H20.8934Z"/>
</mask>
<path d="M26.6092 21.0371C26.4561 21.0368 26.3034 21.0195 26.1529 20.9855L25.0242 20.7158C24.9175 20.6904 24.8165 20.6385 24.7278 20.5636C24.6391 20.4888 24.5646 20.3925 24.5093 20.2812C24.454 20.1698 24.419 20.0458 24.4067 19.9174C24.3943 19.7889 24.4049 19.6588 24.4377 19.5355C24.7306 18.435 24.8795 17.2877 24.8793 16.1335V16.0185C24.8792 15.8818 24.9046 15.7469 24.9538 15.6234C25.003 15.4999 25.0747 15.391 25.1637 15.3046C25.2527 15.2181 25.3568 15.1562 25.4684 15.1235C25.58 15.0908 25.6963 15.088 25.809 15.1153L27.0795 15.4145C27.6201 15.5446 28.1063 15.8924 28.4562 16.3991C28.8061 16.9058 28.9981 17.5404 29 18.1959C28.9986 18.3763 28.9839 18.5562 28.9558 18.7335C28.851 19.3808 28.5598 19.9645 28.1323 20.3844C27.7049 20.8044 27.1677 21.0345 26.6131 21.0352L26.6092 21.0371ZM26.1444 19.1037L26.4543 19.1773C26.5618 19.2019 26.6723 19.201 26.7794 19.1746C26.8866 19.1483 26.9883 19.0969 27.0787 19.0236C27.1695 18.9522 27.2474 18.8599 27.3078 18.7523C27.3682 18.6446 27.4099 18.5237 27.4304 18.3966C27.4419 18.3302 27.4481 18.2627 27.449 18.1949C27.4482 17.9648 27.3807 17.7421 27.2577 17.5643C27.1348 17.3865 26.964 17.2646 26.7743 17.219L26.3993 17.127C26.3564 17.793 26.2706 18.4541 26.1429 19.1046L26.1444 19.1037ZM12.4134 24.9914C11.915 25.0101 11.4237 24.8477 11.0051 24.5257C10.5865 24.2037 10.2605 23.7376 10.0707 23.1896C9.6094 21.6023 9.6094 19.8771 10.0707 18.2898C10.3131 17.6133 10.7567 17.0666 11.3167 16.7539C11.8767 16.4413 12.5139 16.3847 13.1068 16.5948C14.5766 17.0564 16.1225 17.0529 17.5908 16.5847C18.1795 16.3816 18.8104 16.4417 19.3643 16.7536C19.9183 17.0656 20.3569 17.6078 20.5975 18.2778C21.0601 19.8649 21.0615 21.5905 20.6014 23.1786C20.3587 23.856 19.9146 24.4034 19.3538 24.7162C18.793 25.0291 18.1549 25.0854 17.5614 24.8745C16.0951 24.4133 14.5528 24.4155 13.0874 24.8809C12.8683 24.9556 12.6414 24.9928 12.4134 24.9914ZM12.4065 18.3174C12.2298 18.3039 12.0536 18.3506 11.8985 18.4521C11.7434 18.5535 11.6159 18.7055 11.531 18.8901C11.1795 20.0878 11.1795 21.3916 11.531 22.5893C11.6432 22.8105 11.8136 22.9816 12.0158 23.0761C12.218 23.1706 12.4408 23.1834 12.6497 23.1123L12.6784 23.1031C14.4156 22.5498 16.2448 22.5498 17.9821 23.1031C18.1959 23.1818 18.4258 23.1725 18.6347 23.0768C18.8436 22.9811 19.0193 22.8045 19.1333 22.5755C19.4848 21.3778 19.4848 20.074 19.1333 18.8762C19.021 18.6552 18.8506 18.4842 18.6484 18.3897C18.4463 18.2952 18.2235 18.2824 18.0146 18.3533C16.2688 18.9136 14.4296 18.9171 12.6823 18.3634C12.5927 18.332 12.4998 18.3165 12.4065 18.3174ZM15.173 4.79172C15.0082 4.79154 14.8478 4.72895 14.7151 4.61306C14.5823 4.49717 14.4841 4.334 14.4347 4.14724C14.3959 3.99318 14.3681 3.83549 14.3518 3.67586C14.2372 3.00361 13.9061 2.4112 13.4291 2.02508C12.8969 1.69088 12.1345 1.81333 11.1654 2.38875C11.0743 2.44391 10.9749 2.4771 10.8729 2.48639C10.771 2.49569 10.6685 2.48091 10.5714 2.44291C10.4743 2.40491 10.3845 2.34443 10.3071 2.26498C10.2297 2.18553 10.1664 2.08866 10.1207 1.97997C10.075 1.87127 10.0478 1.7529 10.0408 1.63168C10.0338 1.51046 10.047 1.38879 10.0797 1.27367C10.1125 1.15856 10.1641 1.05228 10.2315 0.960972C10.299 0.869663 10.381 0.795126 10.4728 0.741659C11.9223 -0.118254 13.1641 -0.230577 14.1651 0.405611C14.5123 0.628915 14.8182 0.932936 15.0645 1.29959C15.6751 0.756992 16.4287 0.491238 17.1895 0.550157C17.395 0.550157 17.592 0.647156 17.7373 0.819817C17.8826 0.992478 17.9642 1.22666 17.9642 1.47084C17.9642 1.71501 17.8826 1.94919 17.7373 2.12185C17.592 2.29451 17.395 2.39151 17.1895 2.39151C16.9753 2.35596 16.7571 2.37483 16.5494 2.44689C16.3418 2.51894 16.1494 2.64253 15.9849 2.8095C15.8961 2.98193 15.8605 3.18566 15.8841 3.38584C15.9244 3.59484 15.9391 3.7311 15.9415 3.75412C15.9551 3.88363 15.9454 4.0151 15.913 4.13982C15.8806 4.26454 15.8263 4.37964 15.7536 4.4775C15.6809 4.57536 15.5916 4.65374 15.4915 4.70743C15.3914 4.76113 15.2828 4.78892 15.173 4.78896V4.79172ZM15.3705 16.1787C14.6002 16.171 13.8496 15.8884 13.216 15.3675C13.1312 15.3007 13.0584 15.2146 13.0015 15.1143C12.9447 15.014 12.9051 14.9013 12.8849 14.7828C12.8647 14.6642 12.8644 14.5421 12.8839 14.4234C12.9035 14.3048 12.9425 14.1918 12.9987 14.091C13.055 13.9903 13.1274 13.9036 13.2118 13.8361C13.2963 13.7686 13.391 13.7215 13.4908 13.6975C13.5905 13.6735 13.6933 13.6731 13.7931 13.6964C13.893 13.7196 13.9881 13.7659 14.0729 13.8328C14.4919 14.1639 14.9851 14.3373 15.4882 14.3304C15.9914 14.3235 16.4811 14.1366 16.8936 13.7941C17.0734 13.6758 17.2853 13.6472 17.4829 13.7146C17.6804 13.7821 17.8473 13.94 17.9468 14.1536C18.0464 14.3673 18.0704 14.6192 18.0137 14.8539C17.9569 15.0887 17.8241 15.287 17.6443 15.4053C16.9543 15.8895 16.1716 16.1557 15.3705 16.1787ZM9.77477 12.3404C9.60315 12.3404 9.43639 12.2727 9.30065 12.1479C9.16491 12.0231 9.06789 11.8482 9.02481 11.6508C8.98173 11.4534 8.99502 11.2445 9.06262 11.0571C9.13021 10.8696 9.24826 10.7141 9.39826 10.615C10.0578 10.1029 10.8298 9.83341 11.6176 9.84013C12.4054 9.84684 13.174 10.1295 13.8273 10.6528C13.9975 10.7882 14.1156 10.9982 14.1559 11.2369C14.1961 11.4756 14.1552 11.7236 14.042 11.9265C13.9288 12.1294 13.7526 12.2707 13.552 12.3197C13.3513 12.3686 13.1425 12.3211 12.9712 12.1875C12.5524 11.8556 12.059 11.6816 11.5556 11.6883C11.0522 11.695 10.5622 11.8822 10.1497 12.2253C10.035 12.3007 9.90594 12.3403 9.77477 12.3404ZM20.8934 12.3404C20.7623 12.3403 20.6332 12.3007 20.5185 12.2253C20.1059 11.8824 19.616 11.6954 19.1126 11.6887C18.6093 11.682 18.1159 11.8558 17.697 12.1875C17.5258 12.3068 17.3227 12.3436 17.1295 12.2902C16.9362 12.2368 16.7676 12.0973 16.6583 11.9005C16.5491 11.7037 16.5075 11.4646 16.5422 11.2324C16.5769 11.0003 16.6852 10.7928 16.8448 10.6528C17.498 10.1293 18.2667 9.84647 19.0545 9.83976C19.8423 9.83304 20.6143 10.1027 21.2738 10.615C21.4238 10.7141 21.5419 10.8696 21.6095 11.0571C21.677 11.2445 21.6903 11.4534 21.6473 11.6508C21.6042 11.8482 21.5072 12.0231 21.3714 12.1479C21.2357 12.2727 21.0689 12.3404 20.8973 12.3404H20.8934Z" fill="#5C6898" stroke="#5C6898" stroke-width="4" mask="url(#path-3-inside-2_218_2267)"/>
<path d="M19.6366 22C19.5561 21.9998 19.4763 21.9817 19.4006 21.9464C16.883 20.7464 14.122 20.7464 11.6044 21.9464C11.4278 22.0284 11.2336 22.0152 11.0643 21.9099C10.8951 21.8047 10.7649 21.6159 10.7022 21.385C10.6395 21.1542 10.6495 20.9004 10.7301 20.6792C10.8107 20.4581 10.9551 20.2879 11.1318 20.2059C13.9547 18.8606 17.0503 18.8606 19.8733 20.2059C20.0306 20.2785 20.1632 20.4215 20.2476 20.6096C20.332 20.7976 20.3628 21.0187 20.3344 21.2335C20.3061 21.4484 20.2204 21.6432 20.0927 21.7835C19.965 21.9238 19.8034 22.0005 19.6366 22ZM2.24614 13.3667C1.77334 13.4 1.30509 13.2313 0.912206 12.8859C0.519323 12.5406 0.223171 12.0375 0.0685358 11.4526C-0.00955802 11.073 -0.0210808 10.6752 0.0348272 10.289C0.0907352 9.90273 0.212632 9.53795 0.391431 9.22182C0.751999 8.57617 1.26927 8.10913 1.85894 7.89682C3.00851 7.46377 4.79892 8.61057 5.14583 8.84417C5.23143 8.902 5.30708 8.98209 5.36811 9.07952C5.42915 9.17696 5.47429 9.28968 5.50076 9.41076C5.52723 9.53183 5.53448 9.65871 5.52204 9.78357C5.50961 9.90844 5.47776 10.0287 5.42846 10.1369C5.22921 10.5764 4.17856 12.7906 3.02971 13.2227C2.77492 13.3181 2.51118 13.3666 2.24614 13.3667ZM2.44892 9.64102C2.38174 9.63899 2.31467 9.64925 2.24967 9.67149C1.96823 9.76872 1.71961 9.98575 1.54311 10.2883C1.48794 10.3791 1.44871 10.4846 1.4282 10.5974C1.40768 10.7102 1.40639 10.8276 1.42441 10.9411C1.52828 11.4148 2.09493 11.6484 2.63827 11.4462C3.09713 11.1141 3.48561 10.6381 3.76876 10.0611C3.34892 9.82944 2.90327 9.68758 2.44892 9.64102ZM3.34483 5.62539C2.98673 5.63982 2.63029 5.55616 2.29842 5.37979C1.72653 5.10439 1.26064 4.54575 1.00159 3.82479C0.742543 3.10382 0.711176 2.27855 0.914281 1.52759C1.04247 1.17196 1.23049 0.858774 1.46429 0.61143C1.6981 0.364085 1.97165 0.188974 2.26451 0.0991736C2.85899 -0.0889409 3.48472 -0.00788587 4.03937 0.329085C5.12959 0.975427 5.92799 3.35766 6.07707 3.82949C6.11369 3.94589 6.13172 4.07084 6.13004 4.19668C6.12836 4.32251 6.10702 4.44657 6.06731 4.56123C6.02761 4.6759 5.97039 4.77874 5.89917 4.86345C5.82795 4.94817 5.74422 5.01296 5.65314 5.05384C4.90987 5.39397 4.13179 5.58663 3.34483 5.62539ZM2.88416 1.84522C2.79388 1.84455 2.7039 1.85882 2.61637 1.88769C2.52938 1.91076 2.44729 1.9583 2.37578 2.02703C2.30428 2.09576 2.24509 2.18401 2.20233 2.28566C2.0483 2.7344 2.36413 3.39367 2.8785 3.69653C3.39206 3.82864 3.92264 3.79279 4.42303 3.59219C4.20722 2.96834 3.87603 2.42446 3.45929 2.00957C3.27843 1.90305 3.08253 1.84707 2.88416 1.84522ZM28.7589 13.3667C28.4933 13.3662 28.2291 13.3171 27.9739 13.2208C26.825 12.7887 25.7744 10.5745 25.5716 10.135C25.5223 10.0268 25.4905 9.9066 25.478 9.78173C25.4656 9.65686 25.4728 9.52999 25.4993 9.40891C25.5258 9.28783 25.5709 9.17511 25.632 9.07768C25.693 8.98024 25.7686 8.90015 25.8542 8.84233C26.2012 8.60872 27.9923 7.45731 29.1411 7.89498C29.7308 8.10728 30.2481 8.57432 30.6086 9.21998C30.7874 9.53596 30.9092 9.90058 30.9652 10.2867C31.0211 10.6728 31.0096 11.0704 30.9315 11.4499C30.7774 12.034 30.4821 12.5369 30.0903 12.8826C29.6984 13.2284 29.2311 13.3983 28.7589 13.3667ZM27.2377 10.0621C27.5198 10.6385 27.9071 11.1144 28.3646 11.4471C28.9066 11.6502 29.4746 11.4148 29.5785 10.942C29.5965 10.8285 29.5952 10.7112 29.5747 10.5984C29.5542 10.4856 29.515 10.38 29.4598 10.2892C29.2833 9.98668 29.0347 9.76964 28.7532 9.67242C28.2311 9.63571 27.7102 9.76963 27.2377 10.0621ZM27.6602 5.62539C26.8725 5.58668 26.0938 5.39403 25.3498 5.05384C25.2587 5.01296 25.175 4.94817 25.1037 4.86345C25.0325 4.77874 24.9753 4.6759 24.9356 4.56123C24.8959 4.44657 24.8745 4.32251 24.8729 4.19668C24.8712 4.07084 24.8892 3.94589 24.9258 3.82949C25.0749 3.35766 25.8733 0.967117 26.9635 0.329085C27.5184 -0.00695967 28.1439 -0.087983 28.7384 0.0991736C29.0313 0.188974 29.3048 0.364085 29.5386 0.61143C29.7724 0.858774 29.9604 1.17196 30.0886 1.52759C30.2917 2.27855 30.2604 3.10382 30.0013 3.82479C29.7423 4.54575 29.2764 5.10439 28.7045 5.37979C28.3732 5.5557 28.0176 5.63935 27.6602 5.62539ZM26.582 3.59404C27.0822 3.79606 27.613 3.83192 28.1265 3.69837C28.6409 3.39552 28.9567 2.73625 28.8027 2.2875C28.7599 2.18586 28.7007 2.0976 28.6292 2.02888C28.5577 1.96015 28.4756 1.9126 28.3886 1.88954C28.1049 1.80747 27.8083 1.85134 27.5457 2.01419C27.1294 2.42779 26.7983 2.97002 26.582 3.59219V3.59404Z" fill="#5C6898"/>
</svg>
