<svg width="35" height="36" viewBox="0 0 35 36" fill="none" xmlns="http://www.w3.org/2000/svg">
<path fill-rule="evenodd" clip-rule="evenodd" d="M2.13415 18C2.13415 9.51365 9.01365 2.63415 17.5 2.63415C25.9863 2.63415 32.8659 9.51365 32.8659 18C32.8659 26.4863 25.9863 33.3659 17.5 33.3659C9.01365 33.3659 2.13415 26.4863 2.13415 18ZM17.5 0.5C7.83501 0.5 0 8.33501 0 18C0 27.665 7.83501 35.5 17.5 35.5C27.165 35.5 35 27.665 35 18C35 8.33501 27.165 0.5 17.5 0.5ZM26.5777 14.2728C26.9944 13.8561 26.9944 13.1805 26.5777 12.7637C26.161 12.347 25.4853 12.347 25.0686 12.7637L15.8186 22.0138C15.5687 22.2637 15.1632 22.2638 14.9129 22.0136L10.785 17.8857C10.3683 17.469 9.69265 17.469 9.27594 17.8857C8.85923 18.3024 8.85923 18.9781 9.27594 19.3948L13.4039 23.5227C14.4872 24.606 16.2441 24.6065 17.3276 23.5229L26.5777 14.2728Z" fill="#5C6898"/>
</svg>
