<svg width="108" height="96" viewBox="0 0 108 96" fill="none" xmlns="http://www.w3.org/2000/svg">
<path d="M108 32.2884C108 32.1525 107.984 32.0199 107.961 31.889V18.9407C107.961 11.8706 100.678 6.11873 91.7256 6.11873H87.5265V2.89174C87.5265 1.29473 85.8871 0 83.8649 0C81.8428 0 80.2034 1.29473 80.2034 2.89174V6.11873H57.6616V2.89174C57.6616 1.29473 56.0222 0 54 0C51.9778 0 50.3384 1.29473 50.3384 2.89174V6.11873H27.7966V2.89174C27.7966 1.29473 26.1572 0 24.1351 0C22.1129 0 20.4735 1.29473 20.4735 2.89174V6.11873H16.2354C7.28334 6.11873 0 11.8706 0 18.9407V83.178C0 90.2481 7.28309 96 16.2354 96H91.7256C100.678 96 107.961 90.2481 107.961 83.178V32.6879C107.984 32.5569 108 32.4243 108 32.2884ZM16.2354 11.9022H20.4735V15.129C20.4735 16.726 22.1129 18.0208 24.1351 18.0208C26.1572 18.0208 27.7966 16.726 27.7966 15.129V11.9022H50.3384V15.129C50.3384 16.726 51.9778 18.0208 54 18.0208C56.0222 18.0208 57.6616 16.726 57.6616 15.129V11.9022H80.2034V15.129C80.2034 16.726 81.8428 18.0208 83.8649 18.0208C85.8871 18.0208 87.5265 16.726 87.5265 15.129V11.9022H91.7256C96.6399 11.9022 100.638 15.0596 100.638 18.9407V29.3967H7.32312V18.9407C7.32312 15.0598 11.3211 11.9022 16.2354 11.9022ZM91.7256 90.2165H16.2354C11.3213 90.2165 7.32312 87.0591 7.32312 83.178V35.1801H100.638V83.178C100.638 87.0589 96.6399 90.2165 91.7256 90.2165Z" fill="url(#paint0_linear_1_2)"/>
<path d="M108 32.2884C108 32.1525 107.984 32.0199 107.961 31.889V18.9407C107.961 11.8706 100.678 6.11873 91.7256 6.11873H87.5265V2.89174C87.5265 1.29473 85.8871 0 83.8649 0C81.8428 0 80.2034 1.29473 80.2034 2.89174V6.11873H57.6616V2.89174C57.6616 1.29473 56.0222 0 54 0C51.9778 0 50.3384 1.29473 50.3384 2.89174V6.11873H27.7966V2.89174C27.7966 1.29473 26.1572 0 24.1351 0C22.1129 0 20.4735 1.29473 20.4735 2.89174V6.11873H16.2354C7.28334 6.11873 0 11.8706 0 18.9407V83.178C0 90.2481 7.28309 96 16.2354 96H91.7256C100.678 96 107.961 90.2481 107.961 83.178V32.6879C107.984 32.5569 108 32.4243 108 32.2884ZM16.2354 11.9022H20.4735V15.129C20.4735 16.726 22.1129 18.0208 24.1351 18.0208C26.1572 18.0208 27.7966 16.726 27.7966 15.129V11.9022H50.3384V15.129C50.3384 16.726 51.9778 18.0208 54 18.0208C56.0222 18.0208 57.6616 16.726 57.6616 15.129V11.9022H80.2034V15.129C80.2034 16.726 81.8428 18.0208 83.8649 18.0208C85.8871 18.0208 87.5265 16.726 87.5265 15.129V11.9022H91.7256C96.6399 11.9022 100.638 15.0596 100.638 18.9407V29.3967H7.32312V18.9407C7.32312 15.0598 11.3211 11.9022 16.2354 11.9022ZM91.7256 90.2165H16.2354C11.3213 90.2165 7.32312 87.0591 7.32312 83.178V35.1801H100.638V83.178C100.638 87.0589 96.6399 90.2165 91.7256 90.2165Z" fill="black" fill-opacity="0.2"/>
<defs>
<linearGradient id="paint0_linear_1_2" x1="3.29858" y1="91.0856" x2="81.172" y2="-7.51857" gradientUnits="userSpaceOnUse">
<stop stop-color="#6BCBD8"/>
<stop offset="1" stop-color="#AE6CAC"/>
</linearGradient>
</defs>
</svg>
