<svg width="20" height="20" viewBox="0 0 20 20" fill="none" xmlns="http://www.w3.org/2000/svg">
<path d="M18.6107 7.14395L18.1906 16.8939C18.1548 17.7289 17.6961 18.5204 16.9119 19.1003C16.1276 19.6802 15.0795 20.0029 13.99 20H6.00893C4.92016 20.003 3.87267 19.6807 3.08852 19.1015C2.30437 18.5222 1.8452 17.7316 1.80835 16.8971L1.38829 7.14395C1.3791 6.93037 1.48093 6.72273 1.67137 6.56672C1.86181 6.41071 2.12527 6.31911 2.40378 6.31206C2.6823 6.30501 2.95306 6.3831 3.15649 6.52914C3.35993 6.67518 3.47939 6.87721 3.48858 7.0908L3.90864 16.8431C3.92955 17.2595 4.16003 17.6534 4.55167 17.9422C4.94331 18.2309 5.46563 18.3921 6.00893 18.3918H13.99C14.534 18.392 15.0569 18.2304 15.4487 17.941C15.8404 17.6515 16.0705 17.2568 16.0903 16.8399L16.5104 7.0908C16.5196 6.87721 16.639 6.67518 16.8425 6.52914C17.0459 6.3831 17.3167 6.30501 17.5952 6.31206C17.8737 6.31911 18.1371 6.41071 18.3276 6.56672C18.518 6.72273 18.6199 6.93037 18.6107 7.14395ZM20 3.89934C20 4.11292 19.8894 4.31776 19.6924 4.46878C19.4955 4.61981 19.2284 4.70465 18.9499 4.70465H1.05014C0.771629 4.70465 0.50452 4.61981 0.30758 4.46878C0.11064 4.31776 0 4.11292 0 3.89934C0 3.68576 0.11064 3.48092 0.30758 3.3299C0.50452 3.17887 0.771629 3.09402 1.05014 3.09402H4.30559C4.63833 3.09471 4.9595 3.00044 5.20659 2.82956C5.45369 2.65867 5.60905 2.4234 5.64243 2.16952C5.71992 1.57398 6.08376 1.0219 6.66306 0.620831C7.24235 0.219766 7.99561 -0.00154887 8.77606 8.16015e-06H11.2229C12.0033 -0.00154887 12.7566 0.219766 13.3359 0.620831C13.9152 1.0219 14.279 1.57398 14.3565 2.16952C14.3899 2.4234 14.5453 2.65867 14.7924 2.82956C15.0395 3.00044 15.3606 3.09471 15.6934 3.09402H18.9488C19.2273 3.09402 19.4944 3.17887 19.6914 3.3299C19.8883 3.48092 19.9989 3.68576 19.9989 3.89934H20ZM7.46548 3.09402H12.5356C12.3976 2.85222 12.3073 2.59601 12.2678 2.33381C12.2418 2.1353 12.1206 1.95127 11.9277 1.81737C11.7349 1.68347 11.4841 1.60922 11.2239 1.60903H8.77711C8.51695 1.60922 8.26615 1.68347 8.0733 1.81737C7.88045 1.95127 7.75928 2.1353 7.73326 2.33381C7.69339 2.59605 7.60383 2.85227 7.46548 3.09402ZM8.52297 15.2953V8.43809C8.52297 8.22451 8.41233 8.01967 8.21539 7.86864C8.01845 7.71762 7.75134 7.63277 7.47283 7.63277C7.19431 7.63277 6.9272 7.71762 6.73026 7.86864C6.53332 8.01967 6.42268 8.22451 6.42268 8.43809V15.2986C6.42268 15.5121 6.53332 15.717 6.73026 15.868C6.9272 16.019 7.19431 16.1039 7.47283 16.1039C7.75134 16.1039 8.01845 16.019 8.21539 15.868C8.41233 15.717 8.52297 15.5121 8.52297 15.2986V15.2953ZM13.5784 15.2953V8.43809C13.5784 8.22451 13.4677 8.01967 13.2708 7.86864C13.0738 7.71762 12.8067 7.63277 12.5282 7.63277C12.2497 7.63277 11.9826 7.71762 11.7857 7.86864C11.5887 8.01967 11.4781 8.22451 11.4781 8.43809V15.2986C11.4781 15.5121 11.5887 15.717 11.7857 15.868C11.9826 16.019 12.2497 16.1039 12.5282 16.1039C12.8067 16.1039 13.0738 16.019 13.2708 15.868C13.4677 15.717 13.5784 15.5121 13.5784 15.2986V15.2953Z" fill="#5C6898"/>
</svg>
