<svg width="22" height="31" viewBox="0 0 22 31" fill="none" xmlns="http://www.w3.org/2000/svg">
<path d="M11.164 6.09493C11.4245 5.94611 11.5184 5.62455 11.3738 5.37671C8.10835 -0.220447 5.18189 0.537561 3.28699 1.6202C1.39209 2.70284 -0.729055 4.84118 2.531 10.429C2.6756 10.6769 3.00397 10.7571 3.26443 10.6083L11.164 6.09493Z" fill="#5C6898"/>
<path d="M20.8885 21.6851L11.6357 5.82547L2.79281 10.8778L12.0455 26.7371C12.1583 26.9304 12.3247 27.0881 12.5259 27.189C15.0759 28.468 17.44 29.3559 18.8 29.826C19.4441 30.0486 20.1201 29.6588 20.2429 28.9947C20.5014 27.5958 20.8913 25.1329 21.0438 22.3222C21.0559 22.0995 21.0012 21.8783 20.8885 21.6851Z" fill="#5C6898"/>
<path d="M12.2269 26.9728L21.0231 22.038M7.4073 8.24132L16.9396 24.3289M11.3738 5.37671C11.5184 5.62455 11.4245 5.94611 11.164 6.09493L3.26443 10.6083C3.00397 10.7571 2.6756 10.6769 2.531 10.429C-0.729055 4.84118 1.39209 2.70284 3.28699 1.6202C5.18189 0.537561 8.10835 -0.220447 11.3738 5.37671ZM11.6357 5.82547L20.8885 21.6851C21.0012 21.8783 21.0559 22.0995 21.0438 22.3222C20.8913 25.1329 20.5014 27.5958 20.2429 28.9947C20.1201 29.6588 19.4441 30.0486 18.8 29.826C17.44 29.3559 15.0759 28.468 12.5259 27.189C12.3247 27.0881 12.1583 26.9304 12.0455 26.7371L2.79281 10.8778L11.6357 5.82547Z" stroke="#CAD6FF" stroke-linecap="round"/>
</svg>
