<svg width="20" height="20" viewBox="0 0 20 20" fill="none" xmlns="http://www.w3.org/2000/svg">
<path d="M19.2962 18.5666H0.703812C0.322581 18.5666 0 18.8951 0 19.2833C0 19.6715 0.322581 20 0.703812 20H19.2962C19.6774 20 20 19.6715 20 19.2833C20 18.8951 19.6774 18.5666 19.2962 18.5666ZM0.0293256 12.2956L0 15.67C0 15.8492 0.0586513 16.0582 0.205279 16.1777C0.351906 16.2971 0.527859 16.3867 0.703812 16.3867L4.0176 16.3568C4.19355 16.3568 4.3695 16.2673 4.51613 16.1478L15.8944 4.5614C16.1584 4.29265 16.1584 3.81486 15.8944 3.5461L12.61 0.201568C12.346 -0.0671893 11.8768 -0.0671893 11.6129 0.201568L9.32551 2.53079L0.234604 11.788C0.0879769 11.9373 0.0293256 12.1165 0.0293256 12.2956ZM14.3988 4.05375L13.1085 5.36767L10.8211 3.03845L12.1114 1.72452L14.3988 4.05375ZM1.43695 12.5943L9.82405 4.05375L12.1114 6.38298L3.72434 14.9235H1.43695V12.5943Z" fill="#5C6898"/>
</svg>
