<svg width="23" height="31" viewBox="0 0 23 31" fill="none" xmlns="http://www.w3.org/2000/svg">
<path d="M11.664 6.09493C11.9245 5.94611 12.0184 5.62455 11.8738 5.37671C8.60835 -0.220447 5.68189 0.537561 3.78699 1.6202C1.89209 2.70284 -0.229055 4.84118 3.031 10.429C3.1756 10.6769 3.50397 10.7571 3.76443 10.6083L11.664 6.09493Z" fill="white"/>
<path d="M21.3885 21.6851L12.1357 5.82547L3.29281 10.8778L12.5455 26.7371C12.6583 26.9304 12.8247 27.0881 13.0259 27.189C15.5759 28.468 17.94 29.3559 19.3 29.826C19.9441 30.0486 20.6201 29.6588 20.7429 28.9947C21.0014 27.5958 21.3913 25.1329 21.5438 22.3222C21.5559 22.0995 21.5012 21.8783 21.3885 21.6851Z" fill="white"/>
<path d="M12.7269 26.9728L21.5231 22.038M7.9073 8.24132L17.4396 24.3289M11.8738 5.37671C12.0184 5.62455 11.9245 5.94611 11.664 6.09493L3.76443 10.6083C3.50397 10.7571 3.1756 10.6769 3.031 10.429C-0.229055 4.84118 1.89209 2.70284 3.78699 1.6202C5.68189 0.537561 8.60835 -0.220447 11.8738 5.37671ZM12.1357 5.82547L21.3885 21.6851C21.5012 21.8783 21.5559 22.0995 21.5438 22.3222C21.3913 25.1329 21.0014 27.5958 20.7429 28.9947C20.6201 29.6588 19.9441 30.0486 19.3 29.826C17.94 29.3559 15.5759 28.468 13.0259 27.189C12.8247 27.0881 12.6583 26.9304 12.5455 26.7371L3.29281 10.8778L12.1357 5.82547Z" stroke="#AE6CAC" stroke-linecap="round"/>
</svg>
