<svg width="30" height="30" viewBox="0 0 30 30" fill="none" xmlns="http://www.w3.org/2000/svg">
<path d="M24.2685 12.287C24.2685 13.2262 23.5383 13.9568 22.6745 13.9568C21.8115 13.9568 21.082 13.2253 21.082 12.287C21.082 11.3495 21.8122 10.6189 22.6745 10.6189C23.5375 10.6189 24.2685 11.3486 24.2685 12.287Z" fill="#5C6898" stroke="#5C6898"/>
<path d="M2.30075 27.6387L2.30101 27.639C3.23717 28.6103 4.43832 29.0621 6.01477 29.281L6.01569 29.2811C7.56297 29.4989 9.55311 29.5 12.1305 29.5H17.8695C20.4483 29.5 22.4387 29.4989 23.9847 29.2826L23.9852 29.2826C25.5617 29.0637 26.7628 28.6119 27.699 27.6406L27.6992 27.6403C28.638 26.6677 29.0774 25.4175 29.2912 23.7749C29.499 22.1668 29.5 20.0996 29.5 17.4292V17.267C29.5 14.595 29.499 12.5294 29.2912 10.9213C29.0775 9.27894 28.6381 8.02855 27.6992 7.05425C26.763 6.08431 25.5617 5.63248 23.985 5.41195C22.4371 5.1973 20.4465 5.1962 17.8695 5.1962H12.1305C9.55187 5.1962 7.56126 5.1973 6.01495 5.41196C4.43834 5.63248 3.23707 6.08427 2.3009 7.0541C1.36201 8.02834 0.922585 9.27866 0.708857 10.9226L2.30075 27.6387ZM2.30075 27.6387C1.36205 26.6662 0.922598 25.416 0.708854 23.7736C0.500959 22.1654 0.5 20.0981 0.5 17.4276V17.2654C0.5 14.5948 0.500964 12.5277 0.708828 10.9228L2.30075 27.6387ZM26.9383 7.89548C26.241 7.17079 25.3062 6.77614 23.8442 6.57182L23.8439 6.57178C22.3675 6.36642 20.4364 6.36431 17.79 6.36431H12.21C9.56371 6.36431 7.63275 6.36642 6.15636 6.57174L26.9383 7.89548ZM26.9383 7.89548C27.6344 8.61569 28.0125 9.574 28.2083 11.081L28.2084 11.0814C28.4055 12.6079 28.4075 14.6049 28.4075 17.3481C28.4075 20.0913 28.4055 22.0883 28.2084 23.6133L28.2083 23.6135C28.1244 24.2604 28.0059 24.8076 27.8449 25.2764L27.5945 26.0056L27.0308 25.4796L23.4232 22.1125C23.4227 22.112 23.4222 22.1116 23.4218 22.1112C22.6066 21.3627 21.5939 20.9266 20.5383 20.8609C19.4824 20.7951 18.4317 21.1028 17.5449 21.7438C17.5447 21.7439 17.5446 21.744 17.5444 21.7441L17.1286 22.0465L17.1277 22.0471C16.6939 22.3612 16.1687 22.5102 15.6389 22.4625C15.1095 22.4149 14.6174 22.1748 14.2411 21.7912L14.2382 21.7883L14.2382 21.7882L8.25325 15.5856C8.25323 15.5856 8.25321 15.5856 8.25319 15.5855C6.85617 14.1382 4.62318 14.0621 3.13641 15.4093C3.13636 15.4093 3.1363 15.4094 3.13625 15.4094L2.43173 16.0495L1.59104 16.8133L1.5955 15.6775C1.60299 13.7728 1.6371 12.2841 1.79158 11.0817L1.79167 11.081C1.98753 9.57354 2.36577 8.61594 3.05961 7.89448L3.06095 7.89309C3.76034 7.17145 4.69222 6.7747 6.15612 6.57178L26.9383 7.89548Z" fill="#5C6898" stroke="#5C6898"/>
<mask id="path-3-inside-1_1292_2927" fill="white">
<path d="M22.6291 0.178378C21.3391 -1.69148e-07 19.6981 0 17.6506 0H13.0156C10.9696 0 9.32713 -1.69148e-07 8.03713 0.178378C6.70213 0.364865 5.58913 0.758919 4.70563 1.67027C4.21803 2.17625 3.8462 2.79809 3.61963 3.48649C4.37563 3.11351 5.23063 2.89297 6.19063 2.75676C7.81663 2.52973 9.89563 2.52973 12.5206 2.52973H18.3916C21.0166 2.52973 23.0941 2.52973 24.7216 2.75676C25.5586 2.87514 26.3176 3.05838 27.0001 3.35027C26.7706 2.71617 26.4164 2.14351 25.9621 1.67189C25.0786 0.758919 23.9656 0.364865 22.6291 0.18"/>
</mask>
<path d="M22.6291 0.178378C21.3391 -1.69148e-07 19.6981 0 17.6506 0H13.0156C10.9696 0 9.32713 -1.69148e-07 8.03713 0.178378C6.70213 0.364865 5.58913 0.758919 4.70563 1.67027C4.21803 2.17625 3.8462 2.79809 3.61963 3.48649C4.37563 3.11351 5.23063 2.89297 6.19063 2.75676C7.81663 2.52973 9.89563 2.52973 12.5206 2.52973H18.3916C21.0166 2.52973 23.0941 2.52973 24.7216 2.75676C25.5586 2.87514 26.3176 3.05838 27.0001 3.35027C26.7706 2.71617 26.4164 2.14351 25.9621 1.67189C25.0786 0.758919 23.9656 0.364865 22.6291 0.18" fill="#5C6898"/>
<path d="M8.03713 0.178378L7.90015 -0.812197L7.89878 -0.812006L8.03713 0.178378ZM4.70563 1.67027L3.98763 0.974217L3.98557 0.976363L4.70563 1.67027ZM3.61963 3.48649L2.66975 3.17385L1.92462 5.4378L4.06207 4.38329L3.61963 3.48649ZM6.19063 2.75676L6.05235 1.76636L6.05014 1.76667L6.19063 2.75676ZM24.7216 2.75676L24.8617 1.76661L24.8598 1.76635L24.7216 2.75676ZM27.0001 3.35027L26.6069 4.26971L28.7242 5.17524L27.9404 3.00992L27.0001 3.35027ZM25.9621 1.67189L26.6823 0.97812L26.6807 0.97648L25.9621 1.67189ZM22.7661 -0.812196C21.3922 -1.00217 19.6712 -1 17.6506 -1V1C19.725 1 21.286 1.00217 22.4922 1.16895L22.7661 -0.812196ZM17.6506 -1H13.0156V1H17.6506V-1ZM13.0156 -1C10.9966 -1 9.27404 -1.00217 7.90015 -0.812196L8.1741 1.16895C9.38021 1.00217 10.9427 1 13.0156 1V-1ZM7.89878 -0.812006C6.44836 -0.609396 5.08669 -0.159481 3.98764 0.97422L5.42362 2.36632C6.09157 1.67732 6.9559 1.33913 8.17548 1.16876L7.89878 -0.812006ZM3.98557 0.976363C3.39037 1.59399 2.94179 2.34733 2.66975 3.17385L4.5695 3.79912C4.75061 3.24886 5.04569 2.7585 5.42569 2.36418L3.98557 0.976363ZM4.06207 4.38329C4.691 4.073 5.43369 3.87418 6.33111 3.74684L6.05014 1.76667C5.02756 1.91177 4.06026 2.15403 3.17719 2.58969L4.06207 4.38329ZM6.32891 3.74715C7.87012 3.53196 9.86801 3.52973 12.5206 3.52973V1.52973C9.92325 1.52973 7.76313 1.5275 6.05235 1.76636L6.32891 3.74715ZM12.5206 3.52973H18.3916V1.52973H12.5206V3.52973ZM18.3916 3.52973C21.0442 3.52973 23.0407 3.53195 24.5835 3.74717L24.8598 1.76635C23.1476 1.52751 20.9891 1.52973 18.3916 1.52973V3.52973ZM24.5816 3.7469C25.3631 3.85744 26.0302 4.02308 26.6069 4.26971L27.3934 2.43083C26.605 2.09368 25.7541 1.89283 24.8617 1.76661L24.5816 3.7469ZM27.9404 3.00992C27.6646 2.24791 27.2369 1.55385 26.6823 0.978121L25.2419 2.36566C25.596 2.73318 25.8766 3.18443 26.0598 3.69063L27.9404 3.00992ZM26.6807 0.97648C25.5814 -0.159547 24.219 -0.609607 22.7661 -0.810569L22.4921 1.17057C23.7122 1.33934 24.5759 1.67738 25.2435 2.3673L26.6807 0.97648Z" fill="#5C6898" mask="url(#path-3-inside-1_1292_2927)"/>
</svg>
