<svg width="66" height="36" viewBox="0 0 66 36" fill="none" xmlns="http://www.w3.org/2000/svg">
<g clip-path="url(#clip0_396_705)">
<path d="M17.9887 19.0224V34.323C17.9887 34.9733 18.3714 35.5 18.8432 35.5C19.3149 35.5 19.6976 34.9733 19.6976 34.323V25.7298H20.0179V34.323C20.0179 34.9733 20.4006 35.5 20.8723 35.5C21.3442 35.5 21.7267 34.9733 21.7267 34.323V19.0222C22.0017 18.8246 22.378 18.4725 22.7469 17.8641C22.9333 17.5577 23.1143 17.1867 23.2791 16.7468V15.9755C23.0665 15.7982 22.8155 15.5495 22.5543 15.2126C22.3649 15.9778 22.1247 16.5122 21.8983 16.8876C21.6593 17.2814 21.4291 17.5066 21.2665 17.6337C21.1947 17.69 21.1369 17.7256 21.0972 17.7478H18.6185C18.4727 17.6664 18.0752 17.3975 17.685 16.6529C17.251 15.8199 16.8074 14.3615 16.8061 11.7803C16.8059 11.6959 16.8065 11.6117 16.8074 11.5279C16.8128 11.1074 16.5697 10.7604 16.2643 10.753C15.959 10.7455 15.7072 11.0806 15.7019 11.5011C15.7006 11.5967 15.7002 11.6898 15.7002 11.7804C15.6978 14.8827 16.3028 16.7699 16.9684 17.8641C17.3374 18.4727 17.7138 18.8247 17.9887 19.0224Z" fill="#5C6898"/>
<path d="M19.8577 17.2055C20.7165 17.2055 21.4127 16.2466 21.4127 15.0637C21.4127 13.8807 20.7165 12.9218 19.8577 12.9218C18.9989 12.9218 18.3027 13.8807 18.3027 15.0637C18.3027 16.2466 18.9989 17.2055 19.8577 17.2055Z" fill="#5C6898"/>
<path d="M23.6696 15.6615V34.083C23.6696 34.8658 24.1303 35.4999 24.6981 35.4999C25.2664 35.4999 25.7271 34.8658 25.7271 34.083V23.737H26.1125V34.083C26.1125 34.8658 26.5732 35.4999 27.1413 35.4999C27.7095 35.4999 28.17 34.8658 28.17 34.083V15.6615C28.5012 15.4235 28.954 14.9998 29.3983 14.2671C29.5274 14.0549 29.6546 13.8176 29.7771 13.5537V12.8C29.5216 12.5693 29.2324 12.2615 28.9359 11.8624C28.7584 12.3806 28.5635 12.7813 28.3764 13.0914C28.0888 13.5655 27.812 13.8369 27.616 13.9898C27.5294 14.0575 27.46 14.1006 27.4121 14.1272H24.4278C24.2523 14.0291 23.7737 13.7054 23.3038 12.8089C22.7813 11.8061 22.2474 10.0502 22.2457 6.9427C22.2455 6.84112 22.2463 6.73969 22.2474 6.63879C22.2539 6.13241 21.9611 5.71483 21.5937 5.70595C21.2259 5.69694 20.9229 6.10026 20.9166 6.60664C20.9149 6.72139 20.9146 6.83346 20.9146 6.94283C20.9115 10.6777 21.64 12.9499 22.4414 14.2672C22.8855 14.9998 23.3386 15.4237 23.6696 15.6615Z" fill="#5C6898"/>
<path d="M25.92 13.4742C26.9539 13.4742 27.7921 12.3197 27.7921 10.8955C27.7921 9.47132 26.9539 8.3168 25.92 8.3168C24.886 8.3168 24.0479 9.47132 24.0479 10.8955C24.0479 12.3197 24.886 13.4742 25.92 13.4742Z" fill="#5C6898"/>
<path d="M45.3033 17.748C45.2636 17.7258 45.2058 17.6902 45.134 17.6339C44.9714 17.5067 44.7413 17.2815 44.5022 16.8878C44.2759 16.5123 44.0358 15.9781 43.8463 15.213C43.5851 15.5496 43.3341 15.7983 43.1216 15.9756V16.7474C43.2864 17.1871 43.4673 17.558 43.6536 17.8642C44.0226 18.4727 44.3988 18.8247 44.6738 19.0224V34.3231C44.6738 34.9734 45.0563 35.5001 45.5282 35.5001C46 35.5001 46.3826 34.9734 46.3826 34.3231V25.7299H46.703V34.3231C46.703 34.9734 47.0856 35.5001 47.5574 35.5001C48.0291 35.5001 48.4119 34.9734 48.4119 34.3231V19.0224C48.6867 18.8247 49.0631 18.4725 49.432 17.8641C50.0976 16.7699 50.7028 14.8826 50.7002 11.7804C50.7002 11.6898 50.6998 11.5965 50.6985 11.5013C50.6931 11.0807 50.4413 10.7456 50.136 10.7531C49.8306 10.7605 49.5876 11.1074 49.593 11.528C49.5938 11.6119 49.5944 11.6961 49.5942 11.7804C49.593 14.3617 49.1494 15.82 48.7153 16.653C48.3251 17.3976 47.9277 17.6666 47.7818 17.748H45.3033Z" fill="#5C6898"/>
<path d="M46.5423 17.2055C47.4011 17.2055 48.0972 16.2466 48.0972 15.0637C48.0972 13.8807 47.4011 12.9218 46.5423 12.9218C45.6835 12.9218 44.9873 13.8807 44.9873 15.0637C44.9873 16.2466 45.6835 17.2055 46.5423 17.2055Z" fill="#5C6898"/>
<path d="M38.9879 14.1272C38.94 14.1005 38.8706 14.0575 38.784 13.9898C38.588 13.8369 38.3112 13.5657 38.0236 13.0914C37.8366 12.7812 37.6416 12.3803 37.4641 11.8621C37.1678 12.2608 36.8786 12.5689 36.623 12.8V13.5539C36.7456 13.8176 36.8728 14.0551 37.0018 14.2671C37.4461 14.9998 37.8989 15.4237 38.2301 15.6615V34.0831C38.2301 34.866 38.6906 35.5 39.2588 35.5C39.8268 35.5 40.2875 34.866 40.2875 34.0831V23.7371H40.673V34.0831C40.673 34.866 41.1337 35.5 41.702 35.5C42.2698 35.5 42.7305 34.866 42.7305 34.0831V15.6615C43.0615 15.4235 43.5145 14.9998 43.9588 14.267C44.7602 12.9496 45.4887 10.6774 45.4856 6.94255C45.4856 6.83318 45.4852 6.72112 45.4835 6.60636C45.4772 6.09999 45.1741 5.69666 44.8063 5.70568C44.4388 5.71456 44.146 6.13214 44.1526 6.63851C44.1537 6.73941 44.1545 6.84085 44.1543 6.94242C44.1526 10.05 43.6187 11.8059 43.0962 12.8086C42.6263 13.7052 42.1477 14.0288 41.9722 14.1269H38.9879V14.1272Z" fill="#5C6898"/>
<path d="M40.48 13.4742C41.5139 13.4742 42.3521 12.3197 42.3521 10.8955C42.3521 9.47132 41.5139 8.3168 40.48 8.3168C39.4461 8.3168 38.6079 9.47132 38.6079 10.8955C38.6079 12.3197 39.4461 13.4742 40.48 13.4742Z" fill="#5C6898"/>
<path d="M30.5587 12.1866V33.8102C30.5587 34.729 31.0995 35.4734 31.7662 35.4734C32.433 35.4734 32.9738 34.729 32.9738 33.8102V21.6659H33.4265V33.8102C33.4265 34.729 33.9673 35.4734 34.634 35.4734C35.3009 35.4734 35.8417 34.729 35.8417 33.8102V12.1864C36.2303 11.9072 36.7619 11.4097 37.2834 10.5497C38.2243 9.00358 39.0794 6.33623 39.0756 1.95213C39.0754 1.82164 39.0747 1.69168 39.0736 1.5632C39.0682 0.968574 38.714 0.492738 38.2825 0.500271C37.8512 0.507671 37.5057 0.995615 37.5111 1.58984C37.5121 1.71428 37.5131 1.83549 37.5131 1.95213C37.5092 5.96977 36.7537 8.05944 36.0841 9.16986C35.7464 9.72641 35.4214 10.0447 35.1913 10.2243C35.0898 10.3038 35.0084 10.3543 34.9521 10.3856H31.4488C31.2429 10.2706 30.6813 9.89054 30.1297 8.8381C29.5163 7.66096 28.8895 5.59994 28.8875 1.95213C28.8873 1.8328 28.8881 1.71388 28.8895 1.59535C28.8971 1.001 28.5536 0.510899 28.1221 0.500406C27.6906 0.489643 27.3348 0.963193 27.3272 1.55755C27.3252 1.69222 27.3247 1.82379 27.3247 1.95213C27.3211 6.33623 28.1763 9.00344 29.1171 10.5496C29.6385 11.4097 30.1701 11.9073 30.5587 12.1866Z" fill="#5C6898"/>
<path d="M33.2005 9.61891C34.4141 9.61891 35.398 8.2637 35.398 6.59197C35.398 4.92023 34.4141 3.56502 33.2005 3.56502C31.9868 3.56502 31.0029 4.92023 31.0029 6.59197C31.0029 8.2637 31.9868 9.61891 33.2005 9.61891Z" fill="#5C6898"/>
</g>
<defs>
<clipPath id="clip0_396_705">
<rect width="35" height="35" fill="white" transform="translate(15.7002 0.5)"/>
</clipPath>
</defs>
</svg>
