<svg width="66" height="36" viewBox="0 0 66 36" fill="none" xmlns="http://www.w3.org/2000/svg">
<path d="M46.8909 20.6598V33.7541C46.8909 34.2269 46.7338 34.6361 46.4195 34.9817C46.1053 35.3272 45.7331 35.5 45.3031 35.5H35.7758V25.0246H29.4244V35.5H19.8971C19.4671 35.5 19.0949 35.3272 18.7807 34.9817C18.4664 34.6361 18.3093 34.2269 18.3093 33.7541V20.6598C18.3093 20.6416 18.3134 20.6143 18.3217 20.5779C18.3299 20.5416 18.3341 20.5143 18.3341 20.4961L32.6001 7.56547L46.8661 20.4961C46.8827 20.5325 46.8909 20.587 46.8909 20.6598ZM52.4237 18.7775L50.8854 20.7962C50.7531 20.9599 50.5794 21.0599 50.3644 21.0963H50.29C50.0749 21.0963 49.9013 21.0326 49.7689 20.9053L32.6001 5.16485L15.4312 20.9053C15.2328 21.0508 15.0343 21.1144 14.8358 21.0963C14.6208 21.0599 14.4471 20.9599 14.3148 20.7962L12.7765 18.7775C12.6442 18.5956 12.5863 18.3819 12.6029 18.1364C12.6194 17.8909 12.7104 17.6954 12.8758 17.5499L30.7145 1.20928C31.2438 0.736425 31.8723 0.5 32.6001 0.5C33.3279 0.5 33.9564 0.736425 34.4857 1.20928L40.5394 6.77436V1.45479C40.5394 1.20018 40.6139 0.991037 40.7627 0.827358C40.9116 0.663679 41.1018 0.581839 41.3334 0.581839H46.097C46.3286 0.581839 46.5188 0.663679 46.6676 0.827358C46.8165 0.991037 46.8909 1.20018 46.8909 1.45479V12.585L52.3244 17.5499C52.4898 17.6954 52.5808 17.8909 52.5973 18.1364C52.6139 18.3819 52.556 18.5956 52.4237 18.7775Z" fill="#5C6898"/>
</svg>
