<svg width="66" height="36" viewBox="0 0 66 36" fill="none" xmlns="http://www.w3.org/2000/svg">
<path d="M34.33 17.7802H40.8401V12.8867H45.0916V5.3935H40.8401V0.5H34.33V5.3935H30.0786V12.8867H34.33V17.7802ZM32.1293 10.5263V7.75394H36.3807V2.86044H38.7893V7.75394H43.0407V10.5263H38.7893V15.4198H36.3807V10.5263H32.1293ZM49.6316 20.8079C48.5601 19.1925 46.5941 18.8504 45.1556 20.0287L45.1092 20.0667L39.5949 25.7412C39.62 25.5478 39.6333 25.35 39.6333 25.1486C39.6333 22.9427 38.074 21.1481 36.1575 21.1481H30.364C29.6602 20.2167 27.93 18.3979 25.1519 18.3979C22.3959 18.3979 20.7052 20.1094 20.0102 21.0033H15.3003V23.3637H20.4989L21.0493 23.3792L21.3504 22.8412C21.4324 22.7064 22.6621 20.7583 25.1519 20.7583C27.6759 20.7583 28.9615 22.8926 29.0112 22.9769L29.306 23.5085H36.1575C36.9432 23.5085 37.5825 24.2443 37.5825 25.1487C37.5825 26.0516 36.9453 26.7861 36.1614 26.7886H30.3707V29.149H39.3601L46.3847 21.9203C46.9131 21.522 47.6147 21.6571 48.0014 22.2402C48.3912 22.8278 48.3127 23.6625 47.8227 24.1404L47.7942 24.1682L39.8495 33.1396H15.3003V35.5H40.6875L49.1797 25.9106C50.4755 24.6146 50.6761 22.3827 49.6316 20.8079Z" fill="#5C6898"/>
</svg>
