<svg width="32" height="32" viewBox="0 0 32 32" fill="none" xmlns="http://www.w3.org/2000/svg">
<path d="M24.4621 9.30098L24.4234 9.30943C24.1163 9.37666 23.876 9.18041 23.7176 8.99101C23.5508 8.79154 23.4023 8.51593 23.2702 8.2387C23.1794 8.04796 23.0904 7.84326 23.0064 7.65C22.9679 7.56149 22.9305 7.47538 22.8944 7.3941C22.7746 7.12426 22.6715 6.91265 22.5809 6.78703L22.7837 6.64079L22.5809 6.78702C22.5498 6.7438 22.469 6.66629 22.3343 6.55838C22.2061 6.4557 22.0485 6.34066 21.883 6.22301C21.8001 6.16414 21.7142 6.10394 21.6292 6.04438C21.3848 5.87312 21.1479 5.70706 21.0121 5.59263C21.0121 5.59262 21.0121 5.59261 21.0121 5.5926L21.1733 5.40148C20.5009 4.83471 21.4588 4.20221 22.1881 3.72058C22.4543 3.54482 22.69 3.38915 22.805 3.26409L24.4621 9.30098ZM24.4621 9.30098L24.4962 9.28103C24.6918 9.16666 24.8145 8.98028 24.9009 8.81503C24.9453 8.73022 24.9842 8.64257 25.0192 8.5621C25.0259 8.54666 25.0324 8.53157 25.0388 8.51679C25.0669 8.45198 25.0923 8.39317 25.1189 8.33747L24.4621 9.30098ZM27.4977 4.74797C27.728 5.22944 27.0002 5.70716 26.3837 6.11181C26.092 6.30322 25.8253 6.47829 25.6967 6.62966C25.5927 6.75199 25.5165 6.9184 25.444 7.07673C25.4256 7.117 25.4074 7.15676 25.389 7.19513L24.8934 8.22958L25.119 8.33733L25.6145 7.30315L25.6146 7.30302C25.6373 7.25549 25.6565 7.21354 25.6748 7.17325C25.6995 7.11925 25.7228 7.06824 25.7515 7.01083C25.7976 6.91876 25.8413 6.84559 25.8872 6.79156L25.8872 6.79153C25.9608 6.70494 26.1137 6.59135 26.3337 6.44437C26.391 6.40605 26.4522 6.36591 26.5154 6.32438C26.6797 6.21658 26.8583 6.09937 27.0219 5.97998C27.2474 5.81552 27.4737 5.62684 27.6202 5.4188C27.771 5.20448 27.8616 4.92939 27.7233 4.64012M27.4977 4.74797L27.7233 4.64012M27.4977 4.74797L27.7233 4.64011C27.7233 4.64011 27.7233 4.64012 27.7233 4.64012M27.4977 4.74797C27.4043 4.55256 26.9929 4.27491 26.5711 3.99022C26.1752 3.723 25.7701 3.44957 25.6102 3.23216L27.7233 4.64012M27.7233 4.64012C27.6828 4.55554 27.6188 4.47992 27.5555 4.41624C27.4897 4.35006 27.4109 4.28321 27.3268 4.21748C27.1591 4.08639 26.9523 3.94597 26.7498 3.8092L26.7126 3.78408C26.5195 3.65375 26.3307 3.52634 26.1689 3.40508C25.9916 3.27226 25.8703 3.16391 25.8115 3.08401L25.8115 3.08399C25.7186 2.9577 25.6205 2.75999 25.51 2.51319C25.4754 2.43601 25.4396 2.35396 25.4029 2.26969C25.3273 2.09648 25.2476 1.91391 25.1663 1.74515C25.0454 1.49423 24.9069 1.24274 24.7439 1.05859C24.5823 0.87594 24.3527 0.712598 24.0597 0.757278L24.0119 0.764569L23.9702 0.78917C23.784 0.899185 23.6634 1.06954 23.5759 1.22543C23.5241 1.31782 23.4708 1.43189 23.4242 1.53182C23.3986 1.58664 23.375 1.63721 23.3547 1.6776C23.3547 1.67762 23.3547 1.67765 23.3547 1.67768L22.8544 2.67253C22.8544 2.67264 22.8543 2.67275 22.8543 2.67285L27.7233 4.64012ZM5.04489 12.4626L5.00858 12.4646C4.77151 12.4778 4.59503 12.3309 4.47876 12.1936C4.35819 12.0512 4.25521 11.8644 4.1665 11.684C4.11057 11.5702 4.05424 11.4458 4.00135 11.3291C3.9713 11.2627 3.94235 11.1988 3.91523 11.1407C3.83444 10.9676 3.76714 10.84 3.70831 10.7646L3.7083 10.7646C3.59016 10.6132 3.42888 10.5037 3.22945 10.387C3.19673 10.3678 3.16241 10.3482 3.127 10.3279C2.95955 10.2322 2.76767 10.1225 2.60507 9.98232L2.60506 9.98231C2.48156 9.87584 2.38818 9.75744 2.33608 9.62448C2.28258 9.48794 2.27851 9.35081 2.3117 9.2216C2.37403 8.97894 2.56291 8.78191 2.74091 8.63278C2.91949 8.48317 3.13074 8.34716 3.30601 8.23432L3.32434 8.22252C3.41638 8.16323 3.49667 8.11125 3.56324 8.06397C3.63245 8.01481 3.67202 7.98091 3.69071 7.95998L5.04489 12.4626ZM5.04489 12.4626L5.07912 12.4503M5.04489 12.4626L5.07912 12.4503M25.0456 5.97289L24.8497 5.81761C24.9992 5.62902 25.2534 5.43433 25.486 5.26494C25.5543 5.21524 25.6214 5.16724 25.6861 5.1209C25.7582 5.06933 25.8274 5.01982 25.8921 4.97232C25.7974 4.8966 25.7075 4.82811 25.6213 4.76244C25.1673 4.41654 24.8156 4.14862 24.4003 3.3107C24.4003 3.31069 24.4003 3.31068 24.4003 3.31066L25.0456 5.97289ZM25.0456 5.97289L24.8497 5.81762C24.7724 5.91513 24.7002 6.04678 24.6344 6.18108C24.5671 6.31856 24.4991 6.47463 24.4331 6.62882C24.4192 6.66125 24.4054 6.69347 24.3918 6.7254C24.3428 6.84015 24.2955 6.951 24.2499 7.05329C24.139 6.83518 24.0528 6.65759 23.9803 6.50839C23.9678 6.48266 23.9557 6.45777 23.944 6.43366C23.8265 6.19212 23.7368 6.01198 23.6223 5.85525C23.5036 5.69286 23.3654 5.56453 23.1622 5.4076C23.0104 5.29035 22.813 5.15027 22.5505 4.96406L25.0456 5.97289ZM5.07912 12.4503C5.45068 12.317 5.64569 11.949 5.78036 11.6554C5.81441 11.5812 5.8471 11.5054 5.8784 11.4329L5.88348 11.4211C5.91677 11.344 5.94861 11.2705 5.98135 11.2001C6.04774 11.0573 6.11123 10.9421 6.18053 10.8569L6.18055 10.8569M5.07912 12.4503L6.18055 10.8569M4.78128 6.23122L4.83691 6.2235C5.08999 6.18838 5.29 6.28869 5.43772 6.44057C5.57475 6.58147 5.67409 6.77288 5.75469 6.95175C5.79573 7.04282 5.83497 7.13791 5.87269 7.22936L5.87377 7.23197C5.9124 7.3256 5.9496 7.4157 5.98849 7.50216C6.06771 7.67831 6.14487 7.81804 6.23049 7.91385C6.30961 8.00238 6.4366 8.09727 6.60192 8.20894C6.64271 8.23648 6.68599 8.26515 6.73059 8.29469C6.8555 8.37743 6.99075 8.46701 7.11048 8.55806C7.27222 8.68106 7.43969 8.83091 7.53996 9.01344C7.64932 9.21251 7.67428 9.44399 7.55744 9.68567L4.78128 6.23122ZM4.78128 6.23122L4.73429 6.26199M4.78128 6.23122L4.73429 6.26199M4.73429 6.26199C4.59363 6.35412 4.48582 6.50031 4.40034 6.64158M4.73429 6.26199L4.40034 6.64158M6.18055 10.8569C6.23953 10.7844 6.33248 10.7029 6.45509 10.6111M6.18055 10.8569L6.45509 10.6111M25.9025 31.25C27.4365 31.2514 28.3031 30.9859 28.9571 30.3163C29.2742 29.9916 29.5299 29.5833 29.791 29.1011C29.9241 28.8554 30.0662 28.5752 30.2209 28.2704C30.3626 27.991 30.5148 27.691 30.6801 27.378C30.6919 27.3557 30.7148 27.3171 30.7449 27.2665C30.8491 27.0914 31.0389 26.7722 31.1473 26.4863C31.2171 26.3023 31.2782 26.0749 31.2361 25.869C31.2134 25.7575 31.1594 25.6479 31.0599 25.5627C30.9626 25.4794 30.8409 25.4359 30.7102 25.4193C30.5467 25.3985 30.3786 25.4028 30.226 25.4106C30.1785 25.413 30.1332 25.4157 30.0894 25.4183C29.9851 25.4245 29.8896 25.4302 29.7949 25.4304L27.826 25.431C27.7413 19.9696 24.2804 14.9356 20.1066 13.043C20.0877 13.0344 20.0687 13.0258 20.0495 13.017C19.7895 12.8988 19.4983 12.7665 19.1973 12.683C19.178 11.5672 18.9803 10.6478 18.2547 9.77135C17.9468 9.39952 17.5251 9.07263 17.0678 8.86175C16.6163 8.65356 16.1091 8.54924 15.6324 8.65134C13.7342 8.87519 12.6778 10.6492 12.6401 12.7048C8.06061 14.3854 4.92227 18.5556 4.16833 24.3369L4.16833 24.337C4.13914 24.5611 4.11939 24.785 4.10084 25.0039C4.09906 25.025 4.09729 25.0459 4.09552 25.0668C4.08516 25.1897 4.07494 25.3108 4.06337 25.431L2.46458 25.43H2.46438L25.9027 31M25.9025 31.25L25.9027 31M25.9025 31.25H25.9026L25.9027 31M25.9025 31.25L16.4848 31.2486L16.4848 30.9986M25.9027 31L16.4848 30.9986M16.4848 30.9986L16.4848 31.2486M16.4848 30.9986L16.4848 31.2486M16.4848 31.2486L5.9939 31.2491L5.99384 30.9991L5.99386 31.2491L16.4848 31.2486ZM4.40034 6.64158C4.31229 6.78709 4.2309 6.95702 4.15434 7.121M4.40034 6.64158L4.15434 7.121M4.15434 7.121C4.14351 7.14419 4.13278 7.16722 4.12215 7.19004M4.15434 7.121L4.12215 7.19004M4.12215 7.19004C3.9737 7.50878 3.843 7.78939 3.69073 7.95996L4.12215 7.19004ZM6.45509 10.6111C6.55661 10.5351 6.66784 10.4596 6.78395 10.3809M6.45509 10.6111L6.78395 10.3809M6.78395 10.3809C6.80687 10.3653 6.82999 10.3496 6.85326 10.3338M6.78395 10.3809L6.85326 10.3338M6.85326 10.3338C6.99054 10.2404 7.13343 10.1412 7.25379 10.0405M6.85326 10.3338L7.25379 10.0405M7.25379 10.0405C7.36986 9.94339 7.49022 9.82473 7.55743 9.6857L7.25379 10.0405ZM17.876 12.3282C17.729 12.3066 17.5822 12.2817 17.4324 12.2564C17.3643 12.2449 17.2956 12.2332 17.226 12.2218C16.9052 12.1689 16.5717 12.1205 16.2246 12.1106M17.876 12.3282L16.2261 12.1107C16.2256 12.1107 16.2251 12.1106 16.2246 12.1106M17.876 12.3282C17.8025 11.6909 17.5657 11.133 17.2234 10.7383C16.8348 10.2904 16.3129 10.0521 15.7145 10.1263C14.7514 10.3265 14.126 11.1397 13.9767 12.3234C14.0983 12.3049 14.2169 12.2858 14.3341 12.2669C14.9293 12.1709 15.4872 12.0809 16.2246 12.1106M17.876 12.3282L16.2246 12.1106M27.5775 25.6811L27.8275 25.681L27.5775 25.5824C27.5776 25.6153 27.5776 25.6482 27.5775 25.6811ZM2.52994 26.9158H9.25432H29.3702C29.0985 27.4954 28.8707 27.958 28.6516 28.3303C28.3902 28.7745 28.1503 29.074 27.8797 29.2828C27.3433 29.6966 26.628 29.8015 25.176 29.8014C25.176 29.8014 25.176 29.8014 25.1759 29.8014L22.6356 29.8003H22.6355L6.82198 29.8007H6.82181C6.52632 29.8009 6.26339 29.807 6.02894 29.8126L6.01751 29.8128C5.78658 29.8183 5.5861 29.8231 5.40517 29.8214C5.03602 29.818 4.77546 29.7875 4.55132 29.697C4.10787 29.518 3.72839 29.0736 3.03572 27.8198C2.96645 27.6944 2.89741 27.5736 2.82952 27.4548C2.72585 27.2735 2.62488 27.0968 2.52994 26.9158ZM28.355 15.7538L28.3961 15.742L28.4309 15.7172C28.5544 15.6295 28.6386 15.4944 28.7001 15.3735C28.7641 15.2479 28.821 15.1013 28.874 14.963L28.8754 14.9592C28.9883 14.6647 29.0866 14.4084 29.2205 14.2486L29.2205 14.2486C29.3416 14.1039 29.5022 13.9941 29.676 13.8895C29.7071 13.8709 29.7412 13.8508 29.7758 13.8305C29.8295 13.799 29.8844 13.7667 29.9309 13.7378C30.0108 13.688 30.0964 13.63 30.1666 13.5611C30.2378 13.4911 30.3089 13.3945 30.3309 13.2661C30.3533 13.1347 30.3176 13.0107 30.2539 12.9007C30.136 12.6973 29.8851 12.4785 29.5039 12.2151C29.1763 11.9887 29.0247 11.6518 28.8676 11.3026L28.8542 11.2729C28.7789 11.1056 28.692 10.916 28.57 10.7733C28.4349 10.6152 28.2499 10.506 27.9979 10.5135L27.9554 10.5147L27.9158 10.5299C27.5825 10.6576 27.4397 10.9805 27.3503 11.2244C27.3264 11.2896 27.3042 11.356 27.2833 11.4186L27.2824 11.4212C27.2614 11.484 27.2417 11.5431 27.2209 11.6002C27.1782 11.7176 27.1367 11.8107 27.0886 11.8814C27.0202 11.9819 26.9219 12.0804 26.8012 12.1867C26.758 12.2248 26.7054 12.2691 26.6506 12.3153C26.5722 12.3814 26.4894 12.4512 26.4231 12.5118C26.1891 12.7258 25.903 13.0431 26.0249 13.4817L26.2658 13.4148L26.0249 13.4817C26.0721 13.6518 26.1999 13.7693 26.3058 13.8515C26.3768 13.9067 26.4668 13.9663 26.554 14.0243C26.5958 14.052 26.637 14.0793 26.6752 14.1055C26.9306 14.2809 27.1858 14.4913 27.3405 14.8387L27.3405 14.8387C27.3728 14.9112 27.4 14.9858 27.4299 15.0677C27.4382 15.0902 27.4466 15.1132 27.4554 15.1369C27.4934 15.2396 27.539 15.3567 27.6004 15.4589C27.6626 15.5625 27.7533 15.6722 27.8925 15.7355C28.0358 15.8006 28.1933 15.8001 28.355 15.7538ZM28.2861 15.5134C27.8994 15.6242 27.7887 15.3212 27.6663 14.9862C27.636 14.9031 27.605 14.8181 27.5688 14.737L28.2861 15.5134ZM4.97803 10.1937C4.75415 9.86674 4.56836 9.62791 4.25668 9.34786C4.53657 9.0898 4.75899 8.8392 4.9804 8.52133C5.18615 8.85142 5.40127 9.10098 5.68184 9.35156C5.39 9.6124 5.18533 9.85818 4.97803 10.1937ZM26.4969 25.4311H16.4848H8.91339C8.49214 25.4311 8.0724 25.4342 7.65358 25.4373C6.8998 25.4429 6.14901 25.4485 5.39793 25.436C5.66643 18.869 10.1597 14.1525 15.4534 13.5984C20.6147 13.4879 25.3661 17.6755 26.3501 23.9713C26.4267 24.462 26.4862 24.9452 26.4969 25.4311ZM28.0945 13.3852C28.0298 13.308 27.9642 13.2334 27.8988 13.1606C27.9199 13.1323 27.9412 13.1039 27.9629 13.0751C27.9916 13.0369 28.021 12.9979 28.0512 12.957C28.0762 12.9233 28.1013 12.8889 28.1264 12.8536C28.1376 12.8684 28.1489 12.8833 28.1604 12.8982C28.2045 12.9561 28.2497 13.0149 28.2962 13.0737C28.2387 13.1555 28.1877 13.2364 28.1406 13.3116L28.1286 13.3307C28.117 13.3493 28.1057 13.3674 28.0945 13.3852Z" fill="#4F5C8C" stroke="#4F5C8C" stroke-width="0.5"/>
</svg>
