<svg width="66" height="30" viewBox="0 0 66 30" fill="none" xmlns="http://www.w3.org/2000/svg">
<path d="M43.2082 3.33333H41.7498V1.875C41.7498 1 41.1665 0.416668 40.2915 0.416668C39.4165 0.416668 38.8332 1 38.8332 1.875V3.33333H27.1665V1.875C27.1665 1 26.5832 0.416668 25.7082 0.416668C24.8332 0.416668 24.2498 1 24.2498 1.875V3.33333H22.7915C20.3123 3.33333 18.4165 5.22917 18.4165 7.70833V9.16667H47.5832V7.70833C47.5832 5.22917 45.6873 3.33333 43.2082 3.33333ZM18.4165 25.2083C18.4165 27.6875 20.3123 29.5833 22.7915 29.5833H43.2082C45.6873 29.5833 47.5832 27.6875 47.5832 25.2083V12.0833H18.4165V25.2083ZM40.2915 15C41.1665 15 41.7498 15.5833 41.7498 16.4583C41.7498 17.3333 41.1665 17.9167 40.2915 17.9167C39.4165 17.9167 38.8332 17.3333 38.8332 16.4583C38.8332 15.5833 39.4165 15 40.2915 15ZM40.2915 20.8333C41.1665 20.8333 41.7498 21.4167 41.7498 22.2917C41.7498 23.1667 41.1665 23.75 40.2915 23.75C39.4165 23.75 38.8332 23.1667 38.8332 22.2917C38.8332 21.4167 39.4165 20.8333 40.2915 20.8333ZM32.9998 15C33.8748 15 34.4582 15.5833 34.4582 16.4583C34.4582 17.3333 33.8748 17.9167 32.9998 17.9167C32.1248 17.9167 31.5415 17.3333 31.5415 16.4583C31.5415 15.5833 32.1248 15 32.9998 15ZM32.9998 20.8333C33.8748 20.8333 34.4582 21.4167 34.4582 22.2917C34.4582 23.1667 33.8748 23.75 32.9998 23.75C32.1248 23.75 31.5415 23.1667 31.5415 22.2917C31.5415 21.4167 32.1248 20.8333 32.9998 20.8333ZM25.7082 15C26.5832 15 27.1665 15.5833 27.1665 16.4583C27.1665 17.3333 26.5832 17.9167 25.7082 17.9167C24.8332 17.9167 24.2498 17.3333 24.2498 16.4583C24.2498 15.5833 24.8332 15 25.7082 15ZM25.7082 20.8333C26.5832 20.8333 27.1665 21.4167 27.1665 22.2917C27.1665 23.1667 26.5832 23.75 25.7082 23.75C24.8332 23.75 24.2498 23.1667 24.2498 22.2917C24.2498 21.4167 24.8332 20.8333 25.7082 20.8333Z" fill="#5C6898"/>
</svg>
