<svg width="25" height="30" viewBox="0 0 25 30" fill="none" xmlns="http://www.w3.org/2000/svg">
<path d="M24.4419 7.60109L17.5114 0.697402C17.09 0.275444 16.5148 0.0351631 15.9226 0.0351631L2.87016 0C1.28702 0 0 1.31276 0 2.93026V27.0639C0 28.6521 1.32688 30 2.89863 30H22.2039C23.7472 30 25 28.6814 25 27.058V9.00176C25 8.45673 24.8007 7.95859 24.4419 7.60109ZM17.4829 3.93241L21.0649 7.4956H18.1036C17.7733 7.4956 17.4829 7.23188 17.4829 6.93299V3.93241ZM22.2039 27.6558H2.89863C2.57973 27.6558 2.2779 27.3686 2.2779 27.058V2.93026C2.2779 2.61965 2.55695 2.34421 2.87016 2.34421L15.205 2.37937V6.93299C15.205 8.53292 16.5034 9.83981 18.1036 9.83981H22.7221V27.058C22.7221 27.351 22.5285 27.6558 22.2039 27.6558Z" fill="#5C6898"/>
<path d="M4.95508 15.6417C4.95508 16.2864 5.46761 16.8138 6.09403 16.8138H16.0599C16.6863 16.8138 17.1988 16.2864 17.1988 15.6417C17.1988 14.9971 16.6863 14.4696 16.0599 14.4696H6.09403C5.46761 14.4696 4.95508 14.9971 4.95508 15.6417Z" fill="#5C6898"/>
<path d="M6.03739 12.1254H12.6433C13.2697 12.1254 13.7823 11.5979 13.7823 10.9533C13.7823 10.3086 13.2697 9.78119 12.6433 9.78119H6.03739C5.41097 9.78119 4.89844 10.3086 4.89844 10.9533C4.89844 11.5979 5.41097 12.1254 6.03739 12.1254Z" fill="#5C6898"/>
<path d="M18.9072 19.158H6.09403C5.46761 19.158 4.95508 19.6855 4.95508 20.3301C4.95508 20.9748 5.46761 21.5022 6.09403 21.5022H18.9072C19.5337 21.5022 20.0462 20.9748 20.0462 20.3301C20.0462 19.6855 19.5337 19.158 18.9072 19.158Z" fill="#5C6898"/>
</svg>
