<svg width="27" height="27" viewBox="0 0 27 27" fill="none" xmlns="http://www.w3.org/2000/svg">
<path d="M13.1422 1.88228C13.7198 1.28987 14.4094 0.818066 15.1708 0.494226C15.9322 0.170386 16.7504 0.000960185 17.5778 -0.00422415C18.4052 -0.00940849 19.2254 0.149752 19.9908 0.464025C20.7562 0.778299 21.4516 1.24143 22.0366 1.82655C22.6217 2.41167 23.0847 3.10713 23.3989 3.8726C23.713 4.63806 23.8721 5.45829 23.8668 6.2857C23.8615 7.11311 23.6919 7.93123 23.368 8.69261C23.0441 9.45398 22.5721 10.1435 21.9797 10.721L12.2584 20.4435C11.9113 20.7964 11.4977 21.0771 11.0416 21.2694C10.5854 21.4617 10.0957 21.5618 9.60066 21.5638C9.10564 21.5659 8.6151 21.47 8.15735 21.2815C7.6996 21.0931 7.28369 20.8158 6.93361 20.4658C6.58353 20.1158 6.30622 19.7 6.11766 19.2423C5.9291 18.7846 5.83302 18.2941 5.83498 17.799C5.83694 17.304 5.93688 16.8143 6.12906 16.3581C6.32123 15.9019 6.60183 15.4882 6.95466 15.141L16.6772 5.41853L18.4447 7.18603L8.72216 16.9085C8.60278 17.0238 8.50755 17.1618 8.44204 17.3143C8.37653 17.4668 8.34204 17.6308 8.3406 17.7968C8.33916 17.9628 8.37079 18.1274 8.43364 18.281C8.49649 18.4346 8.5893 18.5742 8.70667 18.6915C8.82404 18.8089 8.9636 18.9017 9.11722 18.9646C9.27084 19.0274 9.43544 19.059 9.60142 19.0576C9.76739 19.0562 9.93142 19.0217 10.0839 18.9562C10.2364 18.8906 10.3744 18.7954 10.4897 18.676L20.2134 8.95353C20.5617 8.60528 20.8379 8.19185 21.0264 7.73684C21.2149 7.28183 21.3119 6.79415 21.3119 6.30165C21.3119 5.80916 21.2149 5.32148 21.0264 4.86647C20.8379 4.41146 20.5617 3.99803 20.2134 3.64978C19.8652 3.30153 19.4517 3.02528 18.9967 2.83681C18.5417 2.64834 18.054 2.55134 17.5615 2.55134C17.069 2.55134 16.5814 2.64834 16.1264 2.83681C15.6713 3.02528 15.2579 3.30153 14.9097 3.64978L5.18716 13.3735C4.04868 14.5523 3.41871 16.1311 3.43295 17.7698C3.44719 19.4085 4.1045 20.9761 5.2633 22.1349C6.4221 23.2937 7.98968 23.951 9.62841 23.9652C11.2671 23.9795 12.8459 23.3495 14.0247 22.211L24.6322 11.6048L26.3997 13.3735L15.7934 23.9798C14.1524 25.6208 11.9267 26.5427 9.60591 26.5427C7.28515 26.5427 5.05944 25.6208 3.41841 23.9798C1.77739 22.3388 0.855469 20.113 0.855469 17.7923C0.855469 15.4715 1.77739 13.2458 3.41841 11.6048L13.1422 1.88228Z" fill="#5C6898"/>
</svg>
