<svg width="20" height="20" viewBox="0 0 20 20" fill="none" xmlns="http://www.w3.org/2000/svg">
<path d="M16.6667 14.1365C15.8222 14.1365 15.0667 14.4378 14.4889 14.9096L6.56667 10.743C6.62222 10.512 6.66667 10.2811 6.66667 10.0402C6.66667 9.7992 6.62222 9.56827 6.56667 9.33735L14.4 5.21084C15 5.71285 15.7889 6.0241 16.6667 6.0241C18.5111 6.0241 20 4.67871 20 3.01205C20 1.34538 18.5111 0 16.6667 0C14.8222 0 13.3333 1.34538 13.3333 3.01205C13.3333 3.25301 13.3778 3.48394 13.4333 3.71486L5.6 7.84137C5 7.33936 4.21111 7.02811 3.33333 7.02811C1.48889 7.02811 0 8.37349 0 10.0402C0 11.7068 1.48889 13.0522 3.33333 13.0522C4.21111 13.0522 5 12.741 5.6 12.239L13.5111 16.4157C13.4556 16.6265 13.4222 16.8474 13.4222 17.0683C13.4222 18.6847 14.8778 20 16.6667 20C18.4556 20 19.9111 18.6847 19.9111 17.0683C19.9111 15.4518 18.4556 14.1365 16.6667 14.1365ZM16.6667 2.00803C17.2778 2.00803 17.7778 2.45984 17.7778 3.01205C17.7778 3.56426 17.2778 4.01606 16.6667 4.01606C16.0556 4.01606 15.5556 3.56426 15.5556 3.01205C15.5556 2.45984 16.0556 2.00803 16.6667 2.00803ZM3.33333 11.0442C2.72222 11.0442 2.22222 10.5924 2.22222 10.0402C2.22222 9.48795 2.72222 9.03614 3.33333 9.03614C3.94444 9.03614 4.44444 9.48795 4.44444 10.0402C4.44444 10.5924 3.94444 11.0442 3.33333 11.0442ZM16.6667 18.0924C16.0556 18.0924 15.5556 17.6406 15.5556 17.0884C15.5556 16.5361 16.0556 16.0843 16.6667 16.0843C17.2778 16.0843 17.7778 16.5361 17.7778 17.0884C17.7778 17.6406 17.2778 18.0924 16.6667 18.0924Z" fill="#5C6898"/>
</svg>
