<svg width="31" height="25" viewBox="0 0 31 25" fill="none" xmlns="http://www.w3.org/2000/svg">
<path d="M25.3113 7.5V5H22.549V2.5H25.3113V0H28.0737V2.5H30.836V5H28.0737V7.5H25.3113ZM14.2619 20.625C15.9884 20.625 17.4561 20.0783 18.6651 18.985C19.8741 17.8917 20.4782 16.5633 20.4772 15C20.4763 13.4367 19.8723 12.1087 18.6651 11.0162C17.458 9.92375 15.9903 9.37667 14.2619 9.375C12.5336 9.37333 11.0664 9.92042 9.86014 11.0162C8.65392 12.1121 8.04942 13.44 8.04666 15C8.0439 16.56 8.64839 17.8883 9.86014 18.985C11.0719 20.0817 12.5392 20.6283 14.2619 20.625ZM14.2619 18.125C13.2951 18.125 12.4779 17.8229 11.8104 17.2187C11.1428 16.6146 10.809 15.875 10.809 15C10.809 14.125 11.1428 13.3854 11.8104 12.7812C12.4779 12.1771 13.2951 11.875 14.2619 11.875C15.2288 11.875 16.046 12.1771 16.7135 12.7812C17.3811 13.3854 17.7149 14.125 17.7149 15C17.7149 15.875 17.3811 16.6146 16.7135 17.2187C16.046 17.8229 15.2288 18.125 14.2619 18.125ZM3.21255 25C2.4529 25 1.80283 24.7554 1.26233 24.2662C0.721826 23.7771 0.451116 23.1883 0.450195 22.5V7.5C0.450195 6.8125 0.720906 6.22417 1.26233 5.735C1.80375 5.24583 2.45382 5.00083 3.21255 5H7.56325L10.1184 2.5H19.7866V7.5H22.549V10H28.0737V22.5C28.0737 23.1875 27.8034 23.7762 27.2629 24.2662C26.7224 24.7562 26.0719 25.0008 25.3113 25H3.21255Z" fill="#5C6898"/>
</svg>
