<svg width="35" height="35" viewBox="0 0 35 35" fill="none" xmlns="http://www.w3.org/2000/svg">
<path d="M19.2982 13.6131L13.9474 9.58543V25.4146L19.2982 21.3869L24.4737 17.5L19.2982 13.6131ZM19.2982 13.6131L13.9474 9.58543V25.4146L19.2982 21.3869L24.4737 17.5L19.2982 13.6131ZM19.2982 13.6131L13.9474 9.58543V25.4146L19.2982 21.3869L24.4737 17.5L19.2982 13.6131ZM15.7018 3.55276V0C12.1754 0.351759 8.96491 1.75879 6.36842 3.88694L8.85965 6.40201C10.807 4.88945 13.1404 3.86935 15.7018 3.55276ZM6.38597 8.88191L3.87719 6.38442C1.75439 8.98744 0.350877 12.206 0 15.7412H3.54386C3.85965 13.1734 4.87719 10.8342 6.38597 8.88191ZM3.54386 19.2588H0C0.350877 22.794 1.75439 26.0126 3.87719 28.6156L6.38597 26.1005C4.87719 24.1658 3.85965 21.8266 3.54386 19.2588ZM6.36842 31.1131C8.96491 33.2412 12.193 34.6482 15.7018 35V31.4472C13.1404 31.1307 10.807 30.1106 8.85965 28.598L6.36842 31.1131ZM35 17.5C35 26.5754 28.1228 34.0678 19.2982 35V31.4472C26.1754 30.5327 31.4912 24.6231 31.4912 17.5C31.4912 10.3769 26.1754 4.46734 19.2982 3.55276V0C28.1228 0.932161 35 8.42462 35 17.5Z" fill="white"/>
</svg>
